<?xml version="1.0" encoding="us-ascii" standalone="no"?><svg xmlns="http://www.w3.org/2000/svg" xmlns:xlink="http://www.w3.org/1999/xlink" contentStyleType="text/css" height="839px" preserveAspectRatio="none" style="width:1277px;height:839px;background:#FFFFFF;" version="1.1" viewBox="0 0 1277 839" width="1277px" zoomAndPan="magnify"><defs/><g><!--cluster network--><g id="cluster_network"><path d="M36.5,6 L101.5,6 A5.25,5.25 0 0 1 105,9.5 L112,28.2969 L1254.5,28.2969 A3.5,3.5 0 0 1 1258,31.7969 L1258,518.47 A3.5,3.5 0 0 1 1254.5,521.97 L36.5,521.97 A3.5,3.5 0 0 1 33,518.47 L33,9.5 A3.5,3.5 0 0 1 36.5,6 " fill="none" style="stroke:#696969;stroke-width:1.0;"/><line style="stroke:#696969;stroke-width:1.0;" x1="33" x2="112" y1="28.2969" y2="28.2969"/><text fill="#000000" font-family="sans-serif" font-size="14" font-weight="bold" lengthAdjust="spacing" textLength="66" x="37" y="20.9951">network</text></g><!--cluster shortest_paths--><g id="cluster_shortest_paths"><path d="M789.5,49 L906.5,49 A5.25,5.25 0 0 1 910,52.5 L917,71.2969 L1230.5,71.2969 A3.5,3.5 0 0 1 1234,74.7969 L1234,494.47 A3.5,3.5 0 0 1 1230.5,497.97 L789.5,497.97 A3.5,3.5 0 0 1 786,494.47 L786,52.5 A3.5,3.5 0 0 1 789.5,49 " fill="none" style="stroke:#696969;stroke-width:1.0;"/><line style="stroke:#696969;stroke-width:1.0;" x1="786" x2="917" y1="71.2969" y2="71.2969"/><text fill="#000000" font-family="sans-serif" font-size="14" font-weight="bold" lengthAdjust="spacing" textLength="118" x="790" y="63.9951">shortest_paths</text></g><!--cluster busnet--><g id="cluster_busnet"><path d="M9.5,632.97 L97.5,632.97 A5.25,5.25 0 0 1 101,636.47 L108,655.2669 L1266.5,655.2669 A3.5,3.5 0 0 1 1270,658.7669 L1270,809.95 A3.5,3.5 0 0 1 1266.5,813.45 L9.5,813.45 A3.5,3.5 0 0 1 6,809.95 L6,636.47 A3.5,3.5 0 0 1 9.5,632.97 " fill="none" style="stroke:#696969;stroke-width:1.0;"/><line style="stroke:#696969;stroke-width:1.0;" x1="6" x2="108" y1="655.2669" y2="655.2669"/><text fill="#000000" font-family="sans-serif" font-size="14" font-weight="bold" lengthAdjust="spacing" textLength="89" x="10" y="647.9651">bus.busnet</text></g><!--class NetworkConnector--><g id="elem_NetworkConnector"><rect codeLine="5" fill="#F1F1F1" height="96.8906" id="NetworkConnector" rx="3.5" ry="3.5" style="stroke:#181818;stroke-width:0.5;" width="304" x="49" y="352.48"/><ellipse cx="131.75" cy="368.48" fill="#ADD1B2" rx="11" ry="11" style="stroke:#181818;stroke-width:1.0;"/><path d="M134.7188,374.1206 Q134.1406,374.4175 133.5,374.5581 Q132.8594,374.7144 132.1563,374.7144 Q129.6563,374.7144 128.3281,373.0738 Q127.0156,371.4175 127.0156,368.2925 Q127.0156,365.1675 128.3281,363.5113 Q129.6563,361.855 132.1563,361.855 Q132.8594,361.855 133.5,362.0113 Q134.1563,362.1675 134.7188,362.4644 L134.7188,365.1831 Q134.0938,364.605 133.5,364.3394 Q132.9063,364.0581 132.2813,364.0581 Q130.9375,364.0581 130.25,365.1363 Q129.5625,366.1988 129.5625,368.2925 Q129.5625,370.3863 130.25,371.4644 Q130.9375,372.5269 132.2813,372.5269 Q132.9063,372.5269 133.5,372.2613 Q134.0938,371.98 134.7188,371.4019 L134.7188,374.1206 Z " fill="#000000"/><text fill="#000000" font-family="sans-serif" font-size="14" lengthAdjust="spacing" textLength="130" x="152.25" y="373.3267">NetworkConnector</text><line style="stroke:#181818;stroke-width:0.5;" x1="50" x2="352" y1="384.48" y2="384.48"/><ellipse cx="60" cy="398.1284" fill="none" rx="3" ry="3" style="stroke:#038048;stroke-width:1.0;"/><text fill="#000000" font-family="sans-serif" font-size="14" lengthAdjust="spacing" textLength="109" x="69" y="401.4751">property src: int</text><ellipse cx="60" cy="414.4253" fill="none" rx="3" ry="3" style="stroke:#038048;stroke-width:1.0;"/><text fill="#000000" font-family="sans-serif" font-size="14" lengthAdjust="spacing" textLength="119" x="69" y="417.772">property dest: int</text><line style="stroke:#181818;stroke-width:0.5;" x1="50" x2="352" y1="425.0738" y2="425.0738"/><ellipse cx="60" cy="438.7222" fill="#84BE84" rx="3" ry="3" style="stroke:#038048;stroke-width:1.0;"/><text fill="#000000" font-family="sans-serif" font-size="14" font-style="italic" lengthAdjust="spacing" textLength="278" x="69" y="442.0689">weight() -&gt; float = NotImplementedError</text></g><!--class Network--><g id="elem_Network"><rect codeLine="11" fill="#F1F1F1" height="80.5938" id="Network" rx="3.5" ry="3.5" style="stroke:#181818;stroke-width:0.5;" width="326" x="444" y="360.63"/><ellipse cx="486.9" cy="376.63" fill="#ADD1B2" rx="11" ry="11" style="stroke:#181818;stroke-width:1.0;"/><path d="M489.8688,382.2706 Q489.2906,382.5675 488.65,382.7081 Q488.0094,382.8644 487.3063,382.8644 Q484.8063,382.8644 483.4781,381.2238 Q482.1656,379.5675 482.1656,376.4425 Q482.1656,373.3175 483.4781,371.6613 Q484.8063,370.005 487.3063,370.005 Q488.0094,370.005 488.65,370.1613 Q489.3063,370.3175 489.8688,370.6144 L489.8688,373.3331 Q489.2438,372.755 488.65,372.4894 Q488.0563,372.2081 487.4313,372.2081 Q486.0875,372.2081 485.4,373.2863 Q484.7125,374.3488 484.7125,376.4425 Q484.7125,378.5363 485.4,379.6144 Q486.0875,380.6769 487.4313,380.6769 Q488.0563,380.6769 488.65,380.4113 Q489.2438,380.13 489.8688,379.5519 L489.8688,382.2706 Z " fill="#000000"/><text fill="#000000" font-family="sans-serif" font-size="14" lengthAdjust="spacing" textLength="57" x="507.1" y="381.4767">Network</text><rect fill="#FFFFFF" height="15.9688" style="stroke:#181818;stroke-width:1.0;stroke-dasharray:2.0,2.0;" width="173" x="600" y="357.63"/><text fill="#000000" font-family="sans-serif" font-size="12" font-style="italic" lengthAdjust="spacing" textLength="171" x="601" y="369.7687">TNode, TNetworkConnector</text><line style="stroke:#181818;stroke-width:0.5;" x1="445" x2="769" y1="392.63" y2="392.63"/><ellipse cx="455" cy="406.2784" fill="none" rx="3" ry="3" style="stroke:#038048;stroke-width:1.0;"/><text fill="#000000" font-family="sans-serif" font-size="14" lengthAdjust="spacing" textLength="223" x="464" y="409.6251">property nodes: Dict[int, TNode]</text><ellipse cx="455" cy="422.5753" fill="none" rx="3" ry="3" style="stroke:#038048;stroke-width:1.0;"/><text fill="#000000" font-family="sans-serif" font-size="14" lengthAdjust="spacing" textLength="300" x="464" y="425.922">property adjs: Dict[int, TNetworkConnector]</text><line style="stroke:#181818;stroke-width:0.5;" x1="445" x2="769" y1="433.2238" y2="433.2238"/></g><!--class NetworkDijkstra--><g id="elem_NetworkDijkstra"><rect codeLine="16" fill="#F1F1F1" height="162.0781" id="NetworkDijkstra" rx="3.5" ry="3.5" style="stroke:#181818;stroke-width:0.5;" width="284" x="868" y="319.89"/><ellipse cx="951.75" cy="335.89" fill="#ADD1B2" rx="11" ry="11" style="stroke:#181818;stroke-width:1.0;"/><path d="M954.7188,341.5306 Q954.1406,341.8275 953.5,341.9681 Q952.8594,342.1244 952.1563,342.1244 Q949.6563,342.1244 948.3281,340.4838 Q947.0156,338.8275 947.0156,335.7025 Q947.0156,332.5775 948.3281,330.9213 Q949.6563,329.265 952.1563,329.265 Q952.8594,329.265 953.5,329.4213 Q954.1563,329.5775 954.7188,329.8744 L954.7188,332.5931 Q954.0938,332.015 953.5,331.7494 Q952.9063,331.4681 952.2813,331.4681 Q950.9375,331.4681 950.25,332.5463 Q949.5625,333.6088 949.5625,335.7025 Q949.5625,337.7963 950.25,338.8744 Q950.9375,339.9369 952.2813,339.9369 Q952.9063,339.9369 953.5,339.6713 Q954.0938,339.39 954.7188,338.8119 L954.7188,341.5306 Z " fill="#000000"/><text fill="#000000" font-family="sans-serif" font-size="14" lengthAdjust="spacing" textLength="108" x="972.25" y="340.7367">NetworkDijkstra</text><line style="stroke:#181818;stroke-width:0.5;" x1="869" x2="1151" y1="351.89" y2="351.89"/><ellipse cx="879" cy="365.5384" fill="none" rx="3" ry="3" style="stroke:#038048;stroke-width:1.0;"/><text fill="#000000" font-family="sans-serif" font-size="14" lengthAdjust="spacing" textLength="47" x="888" y="368.8851">src: int</text><ellipse cx="879" cy="381.8353" fill="none" rx="3" ry="3" style="stroke:#038048;stroke-width:1.0;"/><text fill="#000000" font-family="sans-serif" font-size="14" lengthAdjust="spacing" textLength="155" x="888" y="385.182">property INFINITY: float</text><ellipse cx="879" cy="398.1322" fill="none" rx="3" ry="3" style="stroke:#038048;stroke-width:1.0;"/><text fill="#000000" font-family="sans-serif" font-size="14" lengthAdjust="spacing" textLength="195" x="888" y="401.4789">property dists: Dict[int, float]</text><ellipse cx="879" cy="414.4291" fill="none" rx="3" ry="3" style="stroke:#038048;stroke-width:1.0;"/><text fill="#000000" font-family="sans-serif" font-size="14" lengthAdjust="spacing" textLength="180" x="888" y="417.7757">property pars: Dict[int, int]</text><ellipse cx="879" cy="430.7259" fill="none" rx="3" ry="3" style="stroke:#038048;stroke-width:1.0;"/><text fill="#000000" font-family="sans-serif" font-size="14" lengthAdjust="spacing" textLength="203" x="888" y="434.0726">property count_paths: list[int]</text><ellipse cx="879" cy="447.0228" fill="none" rx="3" ry="3" style="stroke:#038048;stroke-width:1.0;"/><text fill="#000000" font-family="sans-serif" font-size="14" lengthAdjust="spacing" textLength="258" x="888" y="450.3695">property search_space: Dict[int, float]</text><line style="stroke:#181818;stroke-width:0.5;" x1="869" x2="1151" y1="457.6713" y2="457.6713"/><ellipse cx="879" cy="471.3197" fill="#84BE84" rx="3" ry="3" style="stroke:#038048;stroke-width:1.0;"/><text fill="#000000" font-family="sans-serif" font-size="14" lengthAdjust="spacing" textLength="247" x="888" y="474.6664">from_net(self, net: Network, src: int)</text></g><!--class NetworkAnalysisBetweenness--><g id="elem_NetworkAnalysisBetweenness"><rect codeLine="26" fill="#F1F1F1" height="96.8906" id="NetworkAnalysisBetweenness" rx="3.5" ry="3.5" style="stroke:#181818;stroke-width:0.5;" width="415" x="802.5" y="84"/><ellipse cx="901.75" cy="100" fill="#ADD1B2" rx="11" ry="11" style="stroke:#181818;stroke-width:1.0;"/><path d="M904.7188,105.6406 Q904.1406,105.9375 903.5,106.0781 Q902.8594,106.2344 902.1563,106.2344 Q899.6563,106.2344 898.3281,104.5938 Q897.0156,102.9375 897.0156,99.8125 Q897.0156,96.6875 898.3281,95.0313 Q899.6563,93.375 902.1563,93.375 Q902.8594,93.375 903.5,93.5313 Q904.1563,93.6875 904.7188,93.9844 L904.7188,96.7031 Q904.0938,96.125 903.5,95.8594 Q902.9063,95.5781 902.2813,95.5781 Q900.9375,95.5781 900.25,96.6563 Q899.5625,97.7188 899.5625,99.8125 Q899.5625,101.9063 900.25,102.9844 Q900.9375,104.0469 902.2813,104.0469 Q902.9063,104.0469 903.5,103.7813 Q904.0938,103.5 904.7188,102.9219 L904.7188,105.6406 Z " fill="#000000"/><text fill="#000000" font-family="sans-serif" font-size="14" lengthAdjust="spacing" textLength="208" x="922.25" y="104.8467">NetworkAnalysisBetweenness</text><line style="stroke:#181818;stroke-width:0.5;" x1="803.5" x2="1216.5" y1="116" y2="116"/><ellipse cx="813.5" cy="129.6484" fill="none" rx="3" ry="3" style="stroke:#038048;stroke-width:1.0;"/><text fill="#000000" font-family="sans-serif" font-size="14" lengthAdjust="spacing" textLength="197" x="822.5" y="132.9951">property scores: Dict[int, int]</text><line style="stroke:#181818;stroke-width:0.5;" x1="803.5" x2="1216.5" y1="140.2969" y2="140.2969"/><ellipse cx="813.5" cy="153.9453" fill="#84BE84" rx="3" ry="3" style="stroke:#038048;stroke-width:1.0;"/><text fill="#000000" font-family="sans-serif" font-size="14" lengthAdjust="spacing" textLength="389" x="822.5" y="157.292">from_net(net: Network, dijkstra_engine: NetworkDijkstra)</text><ellipse cx="813.5" cy="170.2422" fill="#84BE84" rx="3" ry="3" style="stroke:#038048;stroke-width:1.0;"/><text fill="#000000" font-family="sans-serif" font-size="14" lengthAdjust="spacing" textLength="158" x="822.5" y="173.5889">top_scores() -&gt; list[int]</text></g><!--class BusNetworkConnector--><g id="elem_BusNetworkConnector"><rect codeLine="32" fill="#F1F1F1" height="129.4844" id="BusNetworkConnector" rx="3.5" ry="3.5" style="stroke:#181818;stroke-width:0.5;" width="238" x="22" y="667.97"/><ellipse cx="59.05" cy="683.97" fill="#ADD1B2" rx="11" ry="11" style="stroke:#181818;stroke-width:1.0;"/><path d="M62.0188,689.6106 Q61.4406,689.9075 60.8,690.0481 Q60.1594,690.2044 59.4563,690.2044 Q56.9563,690.2044 55.6281,688.5638 Q54.3156,686.9075 54.3156,683.7825 Q54.3156,680.6575 55.6281,679.0013 Q56.9563,677.345 59.4563,677.345 Q60.1594,677.345 60.8,677.5013 Q61.4563,677.6575 62.0188,677.9544 L62.0188,680.6731 Q61.3938,680.095 60.8,679.8294 Q60.2063,679.5481 59.5813,679.5481 Q58.2375,679.5481 57.55,680.6263 Q56.8625,681.6888 56.8625,683.7825 Q56.8625,685.8763 57.55,686.9544 Q58.2375,688.0169 59.5813,688.0169 Q60.2063,688.0169 60.8,687.7513 Q61.3938,687.47 62.0188,686.8919 L62.0188,689.6106 Z " fill="#000000"/><text fill="#000000" font-family="sans-serif" font-size="14" lengthAdjust="spacing" textLength="157" x="77.95" y="688.8167">BusNetworkConnector</text><line style="stroke:#181818;stroke-width:0.5;" x1="23" x2="259" y1="699.97" y2="699.97"/><ellipse cx="33" cy="713.6184" fill="none" rx="3" ry="3" style="stroke:#038048;stroke-width:1.0;"/><text fill="#000000" font-family="sans-serif" font-size="14" lengthAdjust="spacing" textLength="160" x="42" y="716.9651">route_ids: tuple[int, int]</text><ellipse cx="33" cy="729.9153" fill="none" rx="3" ry="3" style="stroke:#038048;stroke-width:1.0;"/><text fill="#000000" font-family="sans-serif" font-size="14" lengthAdjust="spacing" textLength="68" x="42" y="733.262">time: float</text><ellipse cx="33" cy="746.2122" fill="none" rx="3" ry="3" style="stroke:#038048;stroke-width:1.0;"/><text fill="#000000" font-family="sans-serif" font-size="14" lengthAdjust="spacing" textLength="82" x="42" y="749.5589">length: float</text><ellipse cx="33" cy="762.5091" fill="none" rx="3" ry="3" style="stroke:#038048;stroke-width:1.0;"/><text fill="#000000" font-family="sans-serif" font-size="14" lengthAdjust="spacing" textLength="212" x="42" y="765.8557">real_path: list[tuple[float, float]]</text><line style="stroke:#181818;stroke-width:0.5;" x1="23" x2="259" y1="773.1575" y2="773.1575"/><ellipse cx="33" cy="786.8059" fill="#84BE84" rx="3" ry="3" style="stroke:#038048;stroke-width:1.0;"/><text fill="#000000" font-family="sans-serif" font-size="14" lengthAdjust="spacing" textLength="110" x="42" y="790.1526">weight() -&gt; float</text></g><!--class BusNetwork--><g id="elem_BusNetwork"><rect codeLine="40" fill="#F1F1F1" height="113.1875" id="BusNetwork" rx="3.5" ry="3.5" style="stroke:#181818;stroke-width:0.5;" width="513" x="350.5" y="676.11"/><ellipse cx="418.75" cy="692.11" fill="#ADD1B2" rx="11" ry="11" style="stroke:#181818;stroke-width:1.0;"/><path d="M421.7188,697.7506 Q421.1406,698.0475 420.5,698.1881 Q419.8594,698.3444 419.1563,698.3444 Q416.6563,698.3444 415.3281,696.7038 Q414.0156,695.0475 414.0156,691.9225 Q414.0156,688.7975 415.3281,687.1413 Q416.6563,685.485 419.1563,685.485 Q419.8594,685.485 420.5,685.6413 Q421.1563,685.7975 421.7188,686.0944 L421.7188,688.8131 Q421.0938,688.235 420.5,687.9694 Q419.9063,687.6881 419.2813,687.6881 Q417.9375,687.6881 417.25,688.7663 Q416.5625,689.8288 416.5625,691.9225 Q416.5625,694.0163 417.25,695.0944 Q417.9375,696.1569 419.2813,696.1569 Q419.9063,696.1569 420.5,695.8913 Q421.0938,695.61 421.7188,695.0319 L421.7188,697.7506 Z " fill="#000000"/><text fill="#000000" font-family="sans-serif" font-size="14" lengthAdjust="spacing" textLength="368" x="439.25" y="696.9567">BusNetwork = Network[Stop, BusNetworkConnector]</text><line style="stroke:#181818;stroke-width:0.5;" x1="351.5" x2="862.5" y1="708.11" y2="708.11"/><line style="stroke:#181818;stroke-width:0.5;" x1="351.5" x2="862.5" y1="716.11" y2="716.11"/><ellipse cx="361.5" cy="729.7584" fill="#84BE84" rx="3" ry="3" style="stroke:#038048;stroke-width:1.0;"/><text fill="#000000" font-family="sans-serif" font-size="14" lengthAdjust="spacing" textLength="232" x="370.5" y="733.1051">from_json(file: str) -&gt; BusNetwork</text><ellipse cx="361.5" cy="746.0553" fill="#84BE84" rx="3" ry="3" style="stroke:#038048;stroke-width:1.0;"/><text fill="#000000" font-family="sans-serif" font-size="14" lengthAdjust="spacing" textLength="487" x="370.5" y="749.402">from_ndjsons(sides_set_type: str = "spatial", **kwargs) -&gt; BusNetwork</text><ellipse cx="361.5" cy="762.3522" fill="#84BE84" rx="3" ry="3" style="stroke:#038048;stroke-width:1.0;"/><text fill="#000000" font-family="sans-serif" font-size="14" lengthAdjust="spacing" textLength="106" x="370.5" y="765.6989">to_dict() -&gt; dict</text><ellipse cx="361.5" cy="778.6491" fill="#84BE84" rx="3" ry="3" style="stroke:#038048;stroke-width:1.0;"/><text fill="#000000" font-family="sans-serif" font-size="14" lengthAdjust="spacing" textLength="168" x="370.5" y="781.9957">to_json(file: str) -&gt; None</text></g><!--class BusNetworkDijkstra--><g id="elem_BusNetworkDijkstra"><rect codeLine="47" fill="#F1F1F1" height="80.5938" id="BusNetworkDijkstra" rx="3.5" ry="3.5" style="stroke:#181818;stroke-width:0.5;" width="355" x="898.5" y="692.41"/><ellipse cx="1004.25" cy="708.41" fill="#ADD1B2" rx="11" ry="11" style="stroke:#181818;stroke-width:1.0;"/><path d="M1007.2188,714.0506 Q1006.6406,714.3475 1006,714.4881 Q1005.3594,714.6444 1004.6563,714.6444 Q1002.1563,714.6444 1000.8281,713.0038 Q999.5156,711.3475 999.5156,708.2225 Q999.5156,705.0975 1000.8281,703.4413 Q1002.1563,701.785 1004.6563,701.785 Q1005.3594,701.785 1006,701.9413 Q1006.6563,702.0975 1007.2188,702.3944 L1007.2188,705.1131 Q1006.5938,704.535 1006,704.2694 Q1005.4063,703.9881 1004.7813,703.9881 Q1003.4375,703.9881 1002.75,705.0663 Q1002.0625,706.1288 1002.0625,708.2225 Q1002.0625,710.3163 1002.75,711.3944 Q1003.4375,712.4569 1004.7813,712.4569 Q1005.4063,712.4569 1006,712.1913 Q1006.5938,711.91 1007.2188,711.3319 L1007.2188,714.0506 Z " fill="#000000"/><text fill="#000000" font-family="sans-serif" font-size="14" lengthAdjust="spacing" textLength="135" x="1024.75" y="713.2567">BusNetworkDijkstra</text><line style="stroke:#181818;stroke-width:0.5;" x1="899.5" x2="1252.5" y1="724.41" y2="724.41"/><line style="stroke:#181818;stroke-width:0.5;" x1="899.5" x2="1252.5" y1="732.41" y2="732.41"/><ellipse cx="909.5" cy="746.0584" fill="#84BE84" rx="3" ry="3" style="stroke:#038048;stroke-width:1.0;"/><text fill="#000000" font-family="sans-serif" font-size="14" lengthAdjust="spacing" textLength="209" x="918.5" y="749.4051">path_to_json(dest: int, file: str)</text><ellipse cx="909.5" cy="762.3553" fill="#84BE84" rx="3" ry="3" style="stroke:#038048;stroke-width:1.0;"/><text fill="#000000" font-family="sans-serif" font-size="14" lengthAdjust="spacing" textLength="329" x="918.5" y="765.702">shortest_path_to_json(src: int, dest: int, file: str)</text></g><!--reverse link NetworkConnector to Network--><g id="link_NetworkConnector_Network"><path codeLine="52" d="M365.33,400.93 C394.81,400.93 413.81,400.93 443.62,400.93 " fill="none" id="NetworkConnector-backto-Network" style="stroke:#454645;stroke-width:1.0;"/><polygon fill="none" points="353.33,400.93,359.33,404.93,365.33,400.93,359.33,396.93,353.33,400.93" style="stroke:#454645;stroke-width:1.0;"/><text fill="#000000" font-family="sans-serif" font-size="13" lengthAdjust="spacing" textLength="54" x="371.5" y="393.9969">contains</text></g><!--reverse link Network to NetworkDijkstra--><g id="link_Network_NetworkDijkstra"><path codeLine="53" d="M776.33,400.93 C808.63,400.93 836.27,400.93 867.8,400.93 " fill="none" id="Network-backto-NetworkDijkstra" style="stroke:#454645;stroke-width:1.0;"/><polygon fill="#454645" points="770.33,400.93,779.33,404.93,775.33,400.93,779.33,396.93,770.33,400.93" style="stroke:#454645;stroke-width:1.0;"/><text fill="#000000" font-family="sans-serif" font-size="13" lengthAdjust="spacing" textLength="30" x="804" y="393.9969">uses</text></g><!--reverse link Network to BusNetwork--><g id="link_Network_BusNetwork"><path codeLine="55" d="M607,459.71 C607,518.12 607,609.37 607,675.82 " fill="none" id="Network-backto-BusNetwork" style="stroke:#454645;stroke-width:1.0;"/><polygon fill="none" points="607,441.71,601,459.71,613,459.71,607,441.71" style="stroke:#454645;stroke-width:1.0;"/><text fill="#000000" font-family="sans-serif" font-size="13" lengthAdjust="spacing" textLength="43" x="608" y="582.0369">&#171;bind&#187;</text></g><!--reverse link NetworkConnector to BusNetworkConnector--><g id="link_NetworkConnector_BusNetworkConnector"><path codeLine="56" d="M189.1176,467.2392 C178.6676,524.6692 164.28,603.76 152.65,667.7 " fill="none" id="NetworkConnector-backto-BusNetworkConnector" style="stroke:#454645;stroke-width:1.0;"/><polygon fill="none" points="192.34,449.53,183.2145,466.1651,195.0207,468.3133,192.34,449.53" style="stroke:#454645;stroke-width:1.0;"/></g><!--reverse link NetworkDijkstra to BusNetworkDijkstra--><g id="link_NetworkDijkstra_BusNetworkDijkstra"><path codeLine="57" d="M1029.5932,499.8298 C1042.9132,566.3698 1057.74,640.48 1068.09,692.17 " fill="none" id="NetworkDijkstra-backto-BusNetworkDijkstra" style="stroke:#454645;stroke-width:1.0;"/><polygon fill="none" points="1026.06,482.18,1023.7099,501.0076,1035.4764,498.6521,1026.06,482.18" style="stroke:#454645;stroke-width:1.0;"/></g><!--reverse link BusNetworkConnector to BusNetwork--><g id="link_BusNetworkConnector_BusNetwork"><path codeLine="59" d="M272.4,732.71 C300.18,732.71 318.8,732.71 350.01,732.71 " fill="none" id="BusNetworkConnector-backto-BusNetwork" style="stroke:#454645;stroke-width:1.0;"/><polygon fill="none" points="260.4,732.71,266.4,736.71,272.4,732.71,266.4,728.71,260.4,732.71" style="stroke:#454645;stroke-width:1.0;"/><text fill="#000000" font-family="sans-serif" font-size="13" lengthAdjust="spacing" textLength="54" x="278.25" y="725.7769">contains</text></g><!--link NetworkAnalysisBetweenness to NetworkDijkstra--><g id="link_NetworkAnalysisBetweenness_NetworkDijkstra"><path codeLine="61" d="M1010,181.08 C1010,219.48 1010,268.33 1010,313.51 " fill="none" id="NetworkAnalysisBetweenness-to-NetworkDijkstra" style="stroke:#454645;stroke-width:1.0;"/><polygon fill="#454645" points="1010,319.51,1014,310.51,1010,314.51,1006,310.51,1010,319.51" style="stroke:#454645;stroke-width:1.0;"/><text fill="#000000" font-family="sans-serif" font-size="13" lengthAdjust="spacing" textLength="30" x="1011" y="254.9569">uses</text></g><!--link NetworkAnalysisBetweenness to Network--><g id="link_NetworkAnalysisBetweenness_Network"><path codeLine="62" d="M937.95,181.08 C860.64,232.21 744.2246,309.1804 671.9446,356.9804 " fill="none" id="NetworkAnalysisBetweenness-to-Network" style="stroke:#454645;stroke-width:1.0;"/><polygon fill="#454645" points="666.94,360.29,676.6534,358.662,671.1105,357.532,672.2405,351.9891,666.94,360.29" style="stroke:#454645;stroke-width:1.0;"/><text fill="#000000" font-family="sans-serif" font-size="13" lengthAdjust="spacing" textLength="56" x="846" y="254.9569">analyses</text></g><text fill="#888888" font-family="sans-serif" font-size="10" lengthAdjust="spacing" textLength="67" x="575.5" y="828.7322">Generated by</text><text fill="#888888" font-family="sans-serif" font-size="10" font-style="italic" lengthAdjust="spacing" textLength="42" x="645.5" y="828.7322">py2puml</text><!--SRC=[ZLLDRzim3BtxLt0vfLtS03iQQO1rtOPSWW7hPIW2Gx6PH8qj6IAz8jZwtqVPiMCdRjT3FYmzKkyzal87tc6Ey5kldJ8SV2YSskOAIiA5ONGvfben_b39NcsHOACome3ssXJAgHmoRP0F1K9XiuD_288aKqGWoy_MxM-MzUyNQmmcR1ty2G0-5iuMwFW0v988j1pSNKoHk5rzHhtTyVWAmZbiCgiORc5fUP4NcH0NZkbNvtnUjIPsAk6NuEKL4hE7fKrn0W_dfEPdh8p0A89xdV2ZqF0HihBgOLJwT0OvIxgwv44xwrZ4nONY7JMqxlNJtbElIGmwibX-MomN3x-YseA-MvgunwI2zCbAiNeG-Ue34bkQ8wr8YaeLhWyXL2xPnLIe18UFspYRnw9rJ9Xj9bvr14UDaxRIL- -rvRDHsO4qtSaZefWg4MVDarY7WxfQ9dqEwT7f6CrMUhNTQIfmvMFP5d6TkMwwanijyNL9D_AHv3Tt9GstkBCbOwnJuSUbz6gV8EiSEyNCX13lEWiELLRPSQn6dQBQRXnV3Kx7VqY28XXr7cyR2nv_Yku93CXPZMf1bQTFPCruepCXBuPLnvv2Jiwd7aTZqZ97CI77_eweGkJ4aRGGQvMD9d1zlNzMRai3YTZ6gTIrbkR_7HS762ojt3jlw-xFc3SsRdArjuqOswQj9h7RbYsywUC930SAZuk6i67emiRfI8RDiDA66Y3CEjiDqyZVmHISC7_3C0qx9a44izbQctG-lppn0jrk1UUEN42RdI0OQkvQoscd8oTuOtBz6VDNDButB09LGRmj6slbzGJVqQ2J5rGAwmDCfyNXKr7csNJw3m00]--></g></svg>