<?xml version="1.0" encoding="us-ascii" standalone="no"?><svg xmlns="http://www.w3.org/2000/svg" xmlns:xlink="http://www.w3.org/1999/xlink" contentStyleType="text/css" height="1200px" preserveAspectRatio="none" style="width:1173px;height:1200px;background:#FFFFFF;" version="1.1" viewBox="0 0 1173 1200" width="1173px" zoomAndPan="magnify"><defs/><g><!--cluster shortest_paths--><g id="cluster_shortest_paths"><path d="M9.5,6 L197.5,6 A5.25,5.25 0 0 1 201,9.5 L208,28.2969 L1162.5,28.2969 A3.5,3.5 0 0 1 1166,31.7969 L1166,1171.44 A3.5,3.5 0 0 1 1162.5,1174.94 L9.5,1174.94 A3.5,3.5 0 0 1 6,1171.44 L6,9.5 A3.5,3.5 0 0 1 9.5,6 " fill="none" style="stroke:#696969;stroke-width:1.0;"/><line style="stroke:#696969;stroke-width:1.0;" x1="6" x2="208" y1="28.2969" y2="28.2969"/><text fill="#000000" font-family="sans-serif" font-size="14" font-weight="bold" lengthAdjust="spacing" textLength="189" x="10" y="20.9951">network.shortest_paths</text></g><!--cluster contraction_hierarchies--><g id="cluster_contraction_hierarchies"><path d="M33.5,49 L218.5,49 A5.25,5.25 0 0 1 222,52.5 L229,71.2969 L1138.5,71.2969 A3.5,3.5 0 0 1 1142,74.7969 L1142,490.58 A3.5,3.5 0 0 1 1138.5,494.08 L33.5,494.08 A3.5,3.5 0 0 1 30,490.58 L30,52.5 A3.5,3.5 0 0 1 33.5,49 " fill="none" style="stroke:#696969;stroke-width:1.0;"/><line style="stroke:#696969;stroke-width:1.0;" x1="30" x2="229" y1="71.2969" y2="71.2969"/><text fill="#000000" font-family="sans-serif" font-size="14" font-weight="bold" lengthAdjust="spacing" textLength="186" x="34" y="63.9951">contraction_hierarchies</text></g><!--cluster random--><g id="cluster_random"><path d="M57.5,92 L116.5,92 A5.25,5.25 0 0 1 120,95.5 L127,114.2969 L386.5,114.2969 A3.5,3.5 0 0 1 390,117.7969 L390,187.5 A3.5,3.5 0 0 1 386.5,191 L57.5,191 A3.5,3.5 0 0 1 54,187.5 L54,95.5 A3.5,3.5 0 0 1 57.5,92 " fill="none" style="stroke:#696969;stroke-width:1.0;"/><line style="stroke:#696969;stroke-width:1.0;" x1="54" x2="127" y1="114.2969" y2="114.2969"/><text fill="#000000" font-family="sans-serif" font-size="14" font-weight="bold" lengthAdjust="spacing" textLength="60" x="58" y="106.9951">random</text></g><!--cluster periodic_ED--><g id="cluster_periodic_ED"><path d="M417.5,92 L507.5,92 A5.25,5.25 0 0 1 511,95.5 L518,114.2969 L762.5,114.2969 A3.5,3.5 0 0 1 766,117.7969 L766,187.5 A3.5,3.5 0 0 1 762.5,191 L417.5,191 A3.5,3.5 0 0 1 414,187.5 L414,95.5 A3.5,3.5 0 0 1 417.5,92 " fill="none" style="stroke:#696969;stroke-width:1.0;"/><line style="stroke:#696969;stroke-width:1.0;" x1="414" x2="518" y1="114.2969" y2="114.2969"/><text fill="#000000" font-family="sans-serif" font-size="14" font-weight="bold" lengthAdjust="spacing" textLength="91" x="418" y="106.9951">periodic_ED</text></g><!--cluster lazy_ED--><g id="cluster_lazy_ED"><path d="M793.5,92 L850.5,92 A5.25,5.25 0 0 1 854,95.5 L861,114.2969 L1114.5,114.2969 A3.5,3.5 0 0 1 1118,117.7969 L1118,187.5 A3.5,3.5 0 0 1 1114.5,191 L793.5,191 A3.5,3.5 0 0 1 790,187.5 L790,95.5 A3.5,3.5 0 0 1 793.5,92 " fill="none" style="stroke:#696969;stroke-width:1.0;"/><line style="stroke:#696969;stroke-width:1.0;" x1="790" x2="861" y1="114.2969" y2="114.2969"/><text fill="#000000" font-family="sans-serif" font-size="14" font-weight="bold" lengthAdjust="spacing" textLength="58" x="794" y="106.9951">lazy_ED</text></g><!--class NetworkDijkstra--><g id="elem_NetworkDijkstra"><rect codeLine="5" fill="#F1F1F1" height="162.0781" id="NetworkDijkstra" rx="3.5" ry="3.5" style="stroke:#181818;stroke-width:0.5;" width="284" x="448" y="996.86"/><ellipse cx="531.75" cy="1012.86" fill="#ADD1B2" rx="11" ry="11" style="stroke:#181818;stroke-width:1.0;"/><path d="M534.7188,1018.5006 Q534.1406,1018.7975 533.5,1018.9381 Q532.8594,1019.0944 532.1563,1019.0944 Q529.6563,1019.0944 528.3281,1017.4538 Q527.0156,1015.7975 527.0156,1012.6725 Q527.0156,1009.5475 528.3281,1007.8913 Q529.6563,1006.235 532.1563,1006.235 Q532.8594,1006.235 533.5,1006.3913 Q534.1563,1006.5475 534.7188,1006.8444 L534.7188,1009.5631 Q534.0938,1008.985 533.5,1008.7194 Q532.9063,1008.4381 532.2813,1008.4381 Q530.9375,1008.4381 530.25,1009.5163 Q529.5625,1010.5788 529.5625,1012.6725 Q529.5625,1014.7663 530.25,1015.8444 Q530.9375,1016.9069 532.2813,1016.9069 Q532.9063,1016.9069 533.5,1016.6413 Q534.0938,1016.36 534.7188,1015.7819 L534.7188,1018.5006 Z " fill="#000000"/><text fill="#000000" font-family="sans-serif" font-size="14" lengthAdjust="spacing" textLength="108" x="552.25" y="1017.7067">NetworkDijkstra</text><line style="stroke:#181818;stroke-width:0.5;" x1="449" x2="731" y1="1028.86" y2="1028.86"/><ellipse cx="459" cy="1042.5084" fill="none" rx="3" ry="3" style="stroke:#038048;stroke-width:1.0;"/><text fill="#000000" font-family="sans-serif" font-size="14" lengthAdjust="spacing" textLength="47" x="468" y="1045.8551">src: int</text><ellipse cx="459" cy="1058.8053" fill="none" rx="3" ry="3" style="stroke:#038048;stroke-width:1.0;"/><text fill="#000000" font-family="sans-serif" font-size="14" lengthAdjust="spacing" textLength="155" x="468" y="1062.152">property INFINITY: float</text><ellipse cx="459" cy="1075.1022" fill="none" rx="3" ry="3" style="stroke:#038048;stroke-width:1.0;"/><text fill="#000000" font-family="sans-serif" font-size="14" lengthAdjust="spacing" textLength="195" x="468" y="1078.4489">property dists: Dict[int, float]</text><ellipse cx="459" cy="1091.3991" fill="none" rx="3" ry="3" style="stroke:#038048;stroke-width:1.0;"/><text fill="#000000" font-family="sans-serif" font-size="14" lengthAdjust="spacing" textLength="180" x="468" y="1094.7457">property pars: Dict[int, int]</text><ellipse cx="459" cy="1107.6959" fill="none" rx="3" ry="3" style="stroke:#038048;stroke-width:1.0;"/><text fill="#000000" font-family="sans-serif" font-size="14" lengthAdjust="spacing" textLength="203" x="468" y="1111.0426">property count_paths: list[int]</text><ellipse cx="459" cy="1123.9928" fill="none" rx="3" ry="3" style="stroke:#038048;stroke-width:1.0;"/><text fill="#000000" font-family="sans-serif" font-size="14" lengthAdjust="spacing" textLength="258" x="468" y="1127.3395">property search_space: Dict[int, float]</text><line style="stroke:#181818;stroke-width:0.5;" x1="449" x2="731" y1="1134.6413" y2="1134.6413"/><ellipse cx="459" cy="1148.2897" fill="#84BE84" rx="3" ry="3" style="stroke:#038048;stroke-width:1.0;"/><text fill="#000000" font-family="sans-serif" font-size="14" lengthAdjust="spacing" textLength="247" x="468" y="1151.6364">from_net(self, net: Network, src: int)</text></g><!--class NetworkAnalysisBetweenness--><g id="elem_NetworkAnalysisBetweenness"><rect codeLine="15" fill="#F1F1F1" height="96.8906" id="NetworkAnalysisBetweenness" rx="3.5" ry="3.5" style="stroke:#181818;stroke-width:0.5;" width="415" x="382.5" y="760.97"/><ellipse cx="481.75" cy="776.97" fill="#ADD1B2" rx="11" ry="11" style="stroke:#181818;stroke-width:1.0;"/><path d="M484.7188,782.6106 Q484.1406,782.9075 483.5,783.0481 Q482.8594,783.2044 482.1563,783.2044 Q479.6563,783.2044 478.3281,781.5638 Q477.0156,779.9075 477.0156,776.7825 Q477.0156,773.6575 478.3281,772.0013 Q479.6563,770.345 482.1563,770.345 Q482.8594,770.345 483.5,770.5013 Q484.1563,770.6575 484.7188,770.9544 L484.7188,773.6731 Q484.0938,773.095 483.5,772.8294 Q482.9063,772.5481 482.2813,772.5481 Q480.9375,772.5481 480.25,773.6263 Q479.5625,774.6888 479.5625,776.7825 Q479.5625,778.8763 480.25,779.9544 Q480.9375,781.0169 482.2813,781.0169 Q482.9063,781.0169 483.5,780.7513 Q484.0938,780.47 484.7188,779.8919 L484.7188,782.6106 Z " fill="#000000"/><text fill="#000000" font-family="sans-serif" font-size="14" lengthAdjust="spacing" textLength="208" x="502.25" y="781.8167">NetworkAnalysisBetweenness</text><line style="stroke:#181818;stroke-width:0.5;" x1="383.5" x2="796.5" y1="792.97" y2="792.97"/><ellipse cx="393.5" cy="806.6184" fill="none" rx="3" ry="3" style="stroke:#038048;stroke-width:1.0;"/><text fill="#000000" font-family="sans-serif" font-size="14" lengthAdjust="spacing" textLength="197" x="402.5" y="809.9651">property scores: Dict[int, int]</text><line style="stroke:#181818;stroke-width:0.5;" x1="383.5" x2="796.5" y1="817.2669" y2="817.2669"/><ellipse cx="393.5" cy="830.9153" fill="#84BE84" rx="3" ry="3" style="stroke:#038048;stroke-width:1.0;"/><text fill="#000000" font-family="sans-serif" font-size="14" lengthAdjust="spacing" textLength="389" x="402.5" y="834.262">from_net(net: Network, dijkstra_engine: NetworkDijkstra)</text><ellipse cx="393.5" cy="847.2122" fill="#84BE84" rx="3" ry="3" style="stroke:#038048;stroke-width:1.0;"/><text fill="#000000" font-family="sans-serif" font-size="14" lengthAdjust="spacing" textLength="158" x="402.5" y="850.5589">top_scores() -&gt; list[int]</text></g><!--class NetworkBidirectionalDijkstra--><g id="elem_NetworkBidirectionalDijkstra"><rect codeLine="21" fill="#F1F1F1" height="96.8906" id="NetworkBidirectionalDijkstra" rx="3.5" ry="3.5" style="stroke:#181818;stroke-width:0.5;" width="445" x="367.5" y="603.08"/><ellipse cx="489.75" cy="619.08" fill="#ADD1B2" rx="11" ry="11" style="stroke:#181818;stroke-width:1.0;"/><path d="M492.7188,624.7206 Q492.1406,625.0175 491.5,625.1581 Q490.8594,625.3144 490.1563,625.3144 Q487.6563,625.3144 486.3281,623.6738 Q485.0156,622.0175 485.0156,618.8925 Q485.0156,615.7675 486.3281,614.1113 Q487.6563,612.455 490.1563,612.455 Q490.8594,612.455 491.5,612.6113 Q492.1563,612.7675 492.7188,613.0644 L492.7188,615.7831 Q492.0938,615.205 491.5,614.9394 Q490.9063,614.6581 490.2813,614.6581 Q488.9375,614.6581 488.25,615.7363 Q487.5625,616.7988 487.5625,618.8925 Q487.5625,620.9863 488.25,622.0644 Q488.9375,623.1269 490.2813,623.1269 Q490.9063,623.1269 491.5,622.8613 Q492.0938,622.58 492.7188,622.0019 L492.7188,624.7206 Z " fill="#000000"/><text fill="#000000" font-family="sans-serif" font-size="14" lengthAdjust="spacing" textLength="192" x="510.25" y="623.9267">NetworkBidirectionalDijkstra</text><line style="stroke:#181818;stroke-width:0.5;" x1="368.5" x2="811.5" y1="635.08" y2="635.08"/><ellipse cx="378.5" cy="648.7284" fill="none" rx="3" ry="3" style="stroke:#038048;stroke-width:1.0;"/><text fill="#000000" font-family="sans-serif" font-size="14" lengthAdjust="spacing" textLength="258" x="387.5" y="652.0751">property search_space: Dict[int, float]</text><line style="stroke:#181818;stroke-width:0.5;" x1="368.5" x2="811.5" y1="659.3769" y2="659.3769"/><ellipse cx="378.5" cy="673.0253" fill="#84BE84" rx="3" ry="3" style="stroke:#038048;stroke-width:1.0;"/><text fill="#000000" font-family="sans-serif" font-size="14" lengthAdjust="spacing" textLength="192" x="387.5" y="676.372">from_net(self, net: Network)</text><ellipse cx="378.5" cy="689.3222" fill="#84BE84" rx="3" ry="3" style="stroke:#038048;stroke-width:1.0;"/><text fill="#000000" font-family="sans-serif" font-size="14" lengthAdjust="spacing" textLength="419" x="387.5" y="692.6689">path(src: int, dest: int) -&gt; tuple[float, list[NetworkConnector]]</text></g><!--class NetworkContractionHierarchies--><g id="elem_NetworkContractionHierarchies"><rect codeLine="27" fill="#F1F1F1" height="162.0781" id="NetworkContractionHierarchies" rx="3.5" ry="3.5" style="stroke:#181818;stroke-width:0.5;" width="545" x="317.5" y="316"/><ellipse cx="478.75" cy="332" fill="#ADD1B2" rx="11" ry="11" style="stroke:#181818;stroke-width:1.0;"/><path d="M481.7188,337.6406 Q481.1406,337.9375 480.5,338.0781 Q479.8594,338.2344 479.1563,338.2344 Q476.6563,338.2344 475.3281,336.5938 Q474.0156,334.9375 474.0156,331.8125 Q474.0156,328.6875 475.3281,327.0313 Q476.6563,325.375 479.1563,325.375 Q479.8594,325.375 480.5,325.5313 Q481.1563,325.6875 481.7188,325.9844 L481.7188,328.7031 Q481.0938,328.125 480.5,327.8594 Q479.9063,327.5781 479.2813,327.5781 Q477.9375,327.5781 477.25,328.6563 Q476.5625,329.7188 476.5625,331.8125 Q476.5625,333.9063 477.25,334.9844 Q477.9375,336.0469 479.2813,336.0469 Q479.9063,336.0469 480.5,335.7813 Q481.0938,335.5 481.7188,334.9219 L481.7188,337.6406 Z " fill="#000000"/><text fill="#000000" font-family="sans-serif" font-size="14" lengthAdjust="spacing" textLength="214" x="499.25" y="336.8467">NetworkContractionHierarchies</text><line style="stroke:#181818;stroke-width:0.5;" x1="318.5" x2="861.5" y1="348" y2="348"/><ellipse cx="328.5" cy="361.6484" fill="none" rx="3" ry="3" style="stroke:#038048;stroke-width:1.0;"/><text fill="#000000" font-family="sans-serif" font-size="14" lengthAdjust="spacing" textLength="179" x="337.5" y="364.9951">property no_shortcuts: int</text><ellipse cx="328.5" cy="377.9453" fill="none" rx="3" ry="3" style="stroke:#038048;stroke-width:1.0;"/><text fill="#000000" font-family="sans-serif" font-size="14" lengthAdjust="spacing" textLength="181" x="337.5" y="381.292">property level: Dict[int, int]</text><ellipse cx="328.5" cy="394.2422" fill="none" rx="3" ry="3" style="stroke:#038048;stroke-width:1.0;"/><text fill="#000000" font-family="sans-serif" font-size="14" lengthAdjust="spacing" textLength="258" x="337.5" y="397.5889">property search_space: Dict[int, float]</text><line style="stroke:#181818;stroke-width:0.5;" x1="318.5" x2="861.5" y1="404.8906" y2="404.8906"/><ellipse cx="328.5" cy="418.5391" fill="#84BE84" rx="3" ry="3" style="stroke:#038048;stroke-width:1.0;"/><text fill="#000000" font-family="sans-serif" font-size="14" lengthAdjust="spacing" textLength="192" x="337.5" y="421.8857">from_net(self, net: Network)</text><ellipse cx="328.5" cy="434.8359" fill="#84BE84" rx="3" ry="3" style="stroke:#038048;stroke-width:1.0;"/><text fill="#000000" font-family="sans-serif" font-size="14" lengthAdjust="spacing" textLength="201" x="337.5" y="438.1826">dist(src: int, dest: int) -&gt; float</text><ellipse cx="328.5" cy="451.1328" fill="#84BE84" rx="3" ry="3" style="stroke:#038048;stroke-width:1.0;"/><text fill="#000000" font-family="sans-serif" font-size="14" lengthAdjust="spacing" textLength="519" x="337.5" y="454.4795">raw_path(src: int, dest: int) -&gt; tuple[float, list[NetworkConnectorTreeNode]]</text><ellipse cx="328.5" cy="467.4297" fill="#84BE84" rx="3" ry="3" style="stroke:#038048;stroke-width:1.0;"/><text fill="#000000" font-family="sans-serif" font-size="14" lengthAdjust="spacing" textLength="419" x="337.5" y="470.7764">path(src: int, dest: int) -&gt; tuple[float, list[NetworkConnector]]</text></g><!--class NetworkContractionHierarchiesRandom--><g id="elem_NetworkContractionHierarchiesRandom"><rect codeLine="37" fill="#F1F1F1" height="48" id="NetworkContractionHierarchiesRandom" rx="3.5" ry="3.5" style="stroke:#181818;stroke-width:0.5;" width="304" x="70" y="127"/><ellipse cx="85" cy="143" fill="#ADD1B2" rx="11" ry="11" style="stroke:#181818;stroke-width:1.0;"/><path d="M87.9688,148.6406 Q87.3906,148.9375 86.75,149.0781 Q86.1094,149.2344 85.4063,149.2344 Q82.9063,149.2344 81.5781,147.5938 Q80.2656,145.9375 80.2656,142.8125 Q80.2656,139.6875 81.5781,138.0313 Q82.9063,136.375 85.4063,136.375 Q86.1094,136.375 86.75,136.5313 Q87.4063,136.6875 87.9688,136.9844 L87.9688,139.7031 Q87.3438,139.125 86.75,138.8594 Q86.1563,138.5781 85.5313,138.5781 Q84.1875,138.5781 83.5,139.6563 Q82.8125,140.7188 82.8125,142.8125 Q82.8125,144.9063 83.5,145.9844 Q84.1875,147.0469 85.5313,147.0469 Q86.1563,147.0469 86.75,146.7813 Q87.3438,146.5 87.9688,145.9219 L87.9688,148.6406 Z " fill="#000000"/><text fill="#000000" font-family="sans-serif" font-size="14" lengthAdjust="spacing" textLength="272" x="99" y="147.8467">NetworkContractionHierarchiesRandom</text><line style="stroke:#181818;stroke-width:0.5;" x1="71" x2="373" y1="159" y2="159"/><line style="stroke:#181818;stroke-width:0.5;" x1="71" x2="373" y1="167" y2="167"/></g><!--class NetworkContractionHierarchiesPeriodicED--><g id="elem_NetworkContractionHierarchiesPeriodicED"><rect codeLine="40" fill="#F1F1F1" height="48" id="NetworkContractionHierarchiesPeriodicED" rx="3.5" ry="3.5" style="stroke:#181818;stroke-width:0.5;" width="321" x="429.5" y="127"/><ellipse cx="444.5" cy="143" fill="#ADD1B2" rx="11" ry="11" style="stroke:#181818;stroke-width:1.0;"/><path d="M447.4688,148.6406 Q446.8906,148.9375 446.25,149.0781 Q445.6094,149.2344 444.9063,149.2344 Q442.4063,149.2344 441.0781,147.5938 Q439.7656,145.9375 439.7656,142.8125 Q439.7656,139.6875 441.0781,138.0313 Q442.4063,136.375 444.9063,136.375 Q445.6094,136.375 446.25,136.5313 Q446.9063,136.6875 447.4688,136.9844 L447.4688,139.7031 Q446.8438,139.125 446.25,138.8594 Q445.6563,138.5781 445.0313,138.5781 Q443.6875,138.5781 443,139.6563 Q442.3125,140.7188 442.3125,142.8125 Q442.3125,144.9063 443,145.9844 Q443.6875,147.0469 445.0313,147.0469 Q445.6563,147.0469 446.25,146.7813 Q446.8438,146.5 447.4688,145.9219 L447.4688,148.6406 Z " fill="#000000"/><text fill="#000000" font-family="sans-serif" font-size="14" lengthAdjust="spacing" textLength="289" x="458.5" y="147.8467">NetworkContractionHierarchiesPeriodicED</text><line style="stroke:#181818;stroke-width:0.5;" x1="430.5" x2="749.5" y1="159" y2="159"/><line style="stroke:#181818;stroke-width:0.5;" x1="430.5" x2="749.5" y1="167" y2="167"/></g><!--class NetworkContractionHierarchiesLazyED--><g id="elem_NetworkContractionHierarchiesLazyED"><rect codeLine="43" fill="#F1F1F1" height="48" id="NetworkContractionHierarchiesLazyED" rx="3.5" ry="3.5" style="stroke:#181818;stroke-width:0.5;" width="296" x="806" y="127"/><ellipse cx="821" cy="143" fill="#ADD1B2" rx="11" ry="11" style="stroke:#181818;stroke-width:1.0;"/><path d="M823.9688,148.6406 Q823.3906,148.9375 822.75,149.0781 Q822.1094,149.2344 821.4063,149.2344 Q818.9063,149.2344 817.5781,147.5938 Q816.2656,145.9375 816.2656,142.8125 Q816.2656,139.6875 817.5781,138.0313 Q818.9063,136.375 821.4063,136.375 Q822.1094,136.375 822.75,136.5313 Q823.4063,136.6875 823.9688,136.9844 L823.9688,139.7031 Q823.3438,139.125 822.75,138.8594 Q822.1563,138.5781 821.5313,138.5781 Q820.1875,138.5781 819.5,139.6563 Q818.8125,140.7188 818.8125,142.8125 Q818.8125,144.9063 819.5,145.9844 Q820.1875,147.0469 821.5313,147.0469 Q822.1563,147.0469 822.75,146.7813 Q823.3438,146.5 823.9688,145.9219 L823.9688,148.6406 Z " fill="#000000"/><text fill="#000000" font-family="sans-serif" font-size="14" lengthAdjust="spacing" textLength="264" x="835" y="147.8467">NetworkContractionHierarchiesLazyED</text><line style="stroke:#181818;stroke-width:0.5;" x1="807" x2="1101" y1="159" y2="159"/><line style="stroke:#181818;stroke-width:0.5;" x1="807" x2="1101" y1="167" y2="167"/></g><!--link NetworkAnalysisBetweenness to NetworkDijkstra--><g id="link_NetworkAnalysisBetweenness_NetworkDijkstra"><path codeLine="46" d="M590,858.06 C590,896.46 590,945.31 590,990.49 " fill="none" id="NetworkAnalysisBetweenness-to-NetworkDijkstra" style="stroke:#454645;stroke-width:1.0;"/><polygon fill="#454645" points="590,996.49,594,987.49,590,991.49,586,987.49,590,996.49" style="stroke:#454645;stroke-width:1.0;"/><text fill="#000000" font-family="sans-serif" font-size="13" lengthAdjust="spacing" textLength="30" x="591" y="931.9269">uses</text></g><!--link NetworkContractionHierarchiesRandom to NetworkContractionHierarchies--><g id="link_NetworkContractionHierarchiesRandom_NetworkContractionHierarchies"><path codeLine="47" d="M257.29,175.4 C305.59,207.43 379.7288,256.602 453.5888,305.582 " fill="none" id="NetworkContractionHierarchiesRandom-to-NetworkContractionHierarchies" style="stroke:#454645;stroke-width:1.0;stroke-dasharray:7.0,7.0;"/><polygon fill="none" points="468.59,315.53,456.9048,300.5816,450.2728,310.5824,468.59,315.53" style="stroke:#454645;stroke-width:1.0;"/><text fill="#000000" font-family="sans-serif" font-size="13" lengthAdjust="spacing" textLength="76" x="377" y="251.0669">implements</text></g><!--link NetworkContractionHierarchiesPeriodicED to NetworkContractionHierarchies--><g id="link_NetworkContractionHierarchiesPeriodicED_NetworkContractionHierarchies"><path codeLine="48" d="M590,175.4 C590,207.43 590,248.55 590,297.53 " fill="none" id="NetworkContractionHierarchiesPeriodicED-to-NetworkContractionHierarchies" style="stroke:#454645;stroke-width:1.0;stroke-dasharray:7.0,7.0;"/><polygon fill="none" points="590,315.53,596,297.53,584,297.53,590,315.53" style="stroke:#454645;stroke-width:1.0;"/><text fill="#000000" font-family="sans-serif" font-size="13" lengthAdjust="spacing" textLength="76" x="591" y="251.0669">implements</text></g><!--link NetworkContractionHierarchiesLazyED to NetworkContractionHierarchies--><g id="link_NetworkContractionHierarchiesLazyED_NetworkContractionHierarchies"><path codeLine="49" d="M919.1,175.4 C871.32,207.43 798.101,256.5267 725.041,305.5067 " fill="none" id="NetworkContractionHierarchiesLazyED-to-NetworkContractionHierarchies" style="stroke:#454645;stroke-width:1.0;stroke-dasharray:7.0,7.0;"/><polygon fill="none" points="710.09,315.53,728.3821,310.4904,721.6999,300.523,710.09,315.53" style="stroke:#454645;stroke-width:1.0;"/><text fill="#000000" font-family="sans-serif" font-size="13" lengthAdjust="spacing" textLength="76" x="825" y="251.0669">implements</text></g><!--link NetworkContractionHierarchies to NetworkBidirectionalDijkstra--><g id="link_NetworkContractionHierarchies_NetworkBidirectionalDijkstra"><path codeLine="50" d="M590,478.28 C590,519.28 590,549.8 590,584.87 " fill="none" id="NetworkContractionHierarchies-to-NetworkBidirectionalDijkstra" style="stroke:#454645;stroke-width:1.0;stroke-dasharray:7.0,7.0;"/><polygon fill="none" points="590,602.87,596,584.87,584,584.87,590,602.87" style="stroke:#454645;stroke-width:1.0;"/></g><!--link NetworkBidirectionalDijkstra to NetworkAnalysisBetweenness--><text fill="#888888" font-family="sans-serif" font-size="10" lengthAdjust="spacing" textLength="67" x="523.5" y="1190.2222">Generated by</text><text fill="#888888" font-family="sans-serif" font-size="10" font-style="italic" lengthAdjust="spacing" textLength="42" x="593.5" y="1190.2222">py2puml</text><!--SRC=[nLLBYzim4BxxLsXl2Sq3UlIXqDrisq09IzbB2S5efN6iHfQ4Hjx5tVQ_T-mupZguIMW2lOJO-ZJpFQJnJSWW1_QidZmt8RfndgzppWg4kGdWSv2A1tZWOiFNW2pb6Y72ZJAEUvuphGo4qW5pLfVLGnG9pH4PlNwnVZF1pFe061B7GuQJnVRrJFtOOF2SlKQClKClOgQeE_rttZhmeMJpnQVvOlxuFMQfjhox9XK6ZDbCYR2aVQCjPDN14ByEX7ww064Bqz2AIGVMk2u4WNkH9UYuWFvsgRTvGbe723eTLQfZrcWSiPskOVJxF5i-6gvBL7XBZm360EruxJ8IraElhfP9buDid4x0h2cUTcMNmB3Q6wnBjfK7GpR-yCQDCudVAgayYA0iAUY6UnqpQvfLoy7EL996DBR-Lfn3uJGiwsAZhO1cwvqb8qMmVdLQZh26YDSwaao1hnWhQ6NUxPU_x5SFT1gRr5L5KPtHmsEjuHdqqNDvkK_LzVYhJ-rjylmbkT3HHm-mi19Mg_yR3uqkQVFZANshCPJLlpQXT9ILIYJti-ET7XhW_Uo2Rfh_B4zs-agWNPSZ8sGybfJ0mSMFgncFqJcUJMZ_hxP0FvIIpYdX74muKVIDFTSjtBXntQ87vNe7NMj-_nWSBpCb9PZLFeIUbA8ejPQ-kEmp6EeUGBAdaasdhdplYbnFfty0]--></g></svg>