<?xml version="1.0" encoding="us-ascii" standalone="no"?><svg xmlns="http://www.w3.org/2000/svg" xmlns:xlink="http://www.w3.org/1999/xlink" contentStyleType="text/css" height="761px" preserveAspectRatio="none" style="width:1338px;height:761px;background:#FFFFFF;" version="1.1" viewBox="0 0 1338 761" width="1338px" zoomAndPan="magnify"><defs/><g><!--cluster network--><g id="cluster_network"><path d="M46.5,265 L111.5,265 A5.25,5.25 0 0 1 115,268.5 L122,287.2969 L1180.5,287.2969 A3.5,3.5 0 0 1 1184,290.7969 L1184,441.5 A3.5,3.5 0 0 1 1180.5,445 L46.5,445 A3.5,3.5 0 0 1 43,441.5 L43,268.5 A3.5,3.5 0 0 1 46.5,265 " fill="none" style="stroke:#696969;stroke-width:1.0;"/><line style="stroke:#696969;stroke-width:1.0;" x1="43" x2="122" y1="287.2969" y2="287.2969"/><text fill="#000000" font-family="sans-serif" font-size="14" font-weight="bold" lengthAdjust="spacing" textLength="66" x="47" y="279.9951">network</text></g><!--cluster network_analysis--><g id="cluster_network_analysis"><path d="M532.5,6 L671.5,6 A5.25,5.25 0 0 1 675,9.5 L682,28.2969 L999.5,28.2969 A3.5,3.5 0 0 1 1003,31.7969 L1003,150.5 A3.5,3.5 0 0 1 999.5,154 L532.5,154 A3.5,3.5 0 0 1 529,150.5 L529,9.5 A3.5,3.5 0 0 1 532.5,6 " fill="none" style="stroke:#696969;stroke-width:1.0;"/><line style="stroke:#696969;stroke-width:1.0;" x1="529" x2="682" y1="28.2969" y2="28.2969"/><text fill="#000000" font-family="sans-serif" font-size="14" font-weight="bold" lengthAdjust="spacing" textLength="140" x="533" y="20.9951">network_analysis</text></g><!--cluster busnet--><g id="cluster_busnet"><path d="M9.5,556 L64.5,556 A5.25,5.25 0 0 1 68,559.5 L75,578.2969 L1327.5,578.2969 A3.5,3.5 0 0 1 1331,581.7969 L1331,732.5 A3.5,3.5 0 0 1 1327.5,736 L9.5,736 A3.5,3.5 0 0 1 6,732.5 L6,559.5 A3.5,3.5 0 0 1 9.5,556 " fill="none" style="stroke:#696969;stroke-width:1.0;"/><line style="stroke:#696969;stroke-width:1.0;" x1="6" x2="75" y1="578.2969" y2="578.2969"/><text fill="#000000" font-family="sans-serif" font-size="14" font-weight="bold" lengthAdjust="spacing" textLength="56" x="10" y="570.9951">busnet</text></g><!--class NetworkConnector--><g id="elem_NetworkConnector"><rect codeLine="5" fill="#F1F1F1" height="96.8906" id="NetworkConnector" rx="3.5" ry="3.5" style="stroke:#181818;stroke-width:0.5;" width="315" x="59.5" y="316"/><ellipse cx="144.25" cy="332" fill="#ADD1B2" rx="11" ry="11" style="stroke:#181818;stroke-width:1.0;"/><path d="M146.5938,327.6719 C145.6563,327.2344 145.0625,327.0938 144.1875,327.0938 C141.5625,327.0938 139.5625,329.1719 139.5625,331.8906 L139.5625,333.0156 C139.5625,335.5938 141.6719,337.4844 144.5625,337.4844 C145.7813,337.4844 146.9375,337.1875 147.6875,336.6406 C148.2656,336.2344 148.5938,335.7813 148.5938,335.3906 C148.5938,334.9375 148.2031,334.5469 147.7344,334.5469 C147.5156,334.5469 147.3125,334.625 147.125,334.8125 C146.6719,335.2969 146.6719,335.2969 146.4844,335.3906 C146.0625,335.6563 145.375,335.7813 144.6094,335.7813 C142.5625,335.7813 141.2656,334.6875 141.2656,332.9844 L141.2656,331.8906 C141.2656,330.1094 142.5156,328.7969 144.25,328.7969 C144.8281,328.7969 145.4375,328.9531 145.9063,329.2031 C146.3906,329.4844 146.5625,329.7031 146.6563,330.1094 C146.7188,330.5156 146.75,330.6406 146.8906,330.7656 C147.0313,330.9063 147.2656,331.0156 147.4844,331.0156 C147.75,331.0156 148.0156,330.875 148.1875,330.6563 C148.2969,330.5 148.3281,330.3125 148.3281,329.8906 L148.3281,328.4688 C148.3281,328.0313 148.3125,327.9063 148.2188,327.75 C148.0625,327.4844 147.7813,327.3438 147.4844,327.3438 C147.1875,327.3438 146.9844,327.4375 146.7656,327.75 L146.5938,327.6719 Z " fill="#000000"/><text fill="#000000" font-family="sans-serif" font-size="14" lengthAdjust="spacing" textLength="137" x="164.75" y="336.8467">NetworkConnector</text><line style="stroke:#181818;stroke-width:0.5;" x1="60.5" x2="373.5" y1="348" y2="348"/><ellipse cx="70.5" cy="361.6484" fill="none" rx="3" ry="3" style="stroke:#038048;stroke-width:1.0;"/><text fill="#000000" font-family="sans-serif" font-size="14" lengthAdjust="spacing" textLength="119" x="79.5" y="364.9951">property src: int</text><ellipse cx="70.5" cy="377.9453" fill="none" rx="3" ry="3" style="stroke:#038048;stroke-width:1.0;"/><text fill="#000000" font-family="sans-serif" font-size="14" lengthAdjust="spacing" textLength="130" x="79.5" y="381.292">property dest: int</text><line style="stroke:#181818;stroke-width:0.5;" x1="60.5" x2="373.5" y1="388.5938" y2="388.5938"/><ellipse cx="70.5" cy="402.2422" fill="#84BE84" rx="3" ry="3" style="stroke:#038048;stroke-width:1.0;"/><text fill="#000000" font-family="sans-serif" font-size="14" font-style="italic" lengthAdjust="spacing" textLength="289" x="79.5" y="405.5889">weight() -&gt; float = NotImplementedError</text></g><!--class Network--><g id="elem_Network"><rect codeLine="11" fill="#F1F1F1" height="80.5938" id="Network" rx="3.5" ry="3.5" style="stroke:#181818;stroke-width:0.5;" width="346" x="465" y="324"/><ellipse cx="518.75" cy="340" fill="#ADD1B2" rx="11" ry="11" style="stroke:#181818;stroke-width:1.0;"/><path d="M521.0938,335.6719 C520.1563,335.2344 519.5625,335.0938 518.6875,335.0938 C516.0625,335.0938 514.0625,337.1719 514.0625,339.8906 L514.0625,341.0156 C514.0625,343.5938 516.1719,345.4844 519.0625,345.4844 C520.2813,345.4844 521.4375,345.1875 522.1875,344.6406 C522.7656,344.2344 523.0938,343.7813 523.0938,343.3906 C523.0938,342.9375 522.7031,342.5469 522.2344,342.5469 C522.0156,342.5469 521.8125,342.625 521.625,342.8125 C521.1719,343.2969 521.1719,343.2969 520.9844,343.3906 C520.5625,343.6563 519.875,343.7813 519.1094,343.7813 C517.0625,343.7813 515.7656,342.6875 515.7656,340.9844 L515.7656,339.8906 C515.7656,338.1094 517.0156,336.7969 518.75,336.7969 C519.3281,336.7969 519.9375,336.9531 520.4063,337.2031 C520.8906,337.4844 521.0625,337.7031 521.1563,338.1094 C521.2188,338.5156 521.25,338.6406 521.3906,338.7656 C521.5313,338.9063 521.7656,339.0156 521.9844,339.0156 C522.25,339.0156 522.5156,338.875 522.6875,338.6563 C522.7969,338.5 522.8281,338.3125 522.8281,337.8906 L522.8281,336.4688 C522.8281,336.0313 522.8125,335.9063 522.7188,335.75 C522.5625,335.4844 522.2813,335.3438 521.9844,335.3438 C521.6875,335.3438 521.4844,335.4375 521.2656,335.75 L521.0938,335.6719 Z " fill="#000000"/><text fill="#000000" font-family="sans-serif" font-size="14" lengthAdjust="spacing" textLength="61" x="539.25" y="344.8467">Network</text><rect fill="#FFFFFF" height="15.9688" style="stroke:#181818;stroke-width:1.0;stroke-dasharray:2.0,2.0;" width="167" x="647" y="321"/><text fill="#000000" font-family="sans-serif" font-size="12" font-style="italic" lengthAdjust="spacing" textLength="165" x="648" y="333.1387">TNode, TNetworkConnector</text><line style="stroke:#181818;stroke-width:0.5;" x1="466" x2="810" y1="356" y2="356"/><ellipse cx="476" cy="369.6484" fill="none" rx="3" ry="3" style="stroke:#038048;stroke-width:1.0;"/><text fill="#000000" font-family="sans-serif" font-size="14" lengthAdjust="spacing" textLength="235" x="485" y="372.9951">property nodes: Dict[int, TNode]</text><ellipse cx="476" cy="385.9453" fill="none" rx="3" ry="3" style="stroke:#038048;stroke-width:1.0;"/><text fill="#000000" font-family="sans-serif" font-size="14" lengthAdjust="spacing" textLength="320" x="485" y="389.292">property adjs: Dict[int, TNetworkConnector]</text><line style="stroke:#181818;stroke-width:0.5;" x1="466" x2="810" y1="396.5938" y2="396.5938"/></g><!--class NetworkDijkstra--><g id="elem_NetworkDijkstra"><rect codeLine="16" fill="#F1F1F1" height="129.4844" id="NetworkDijkstra" rx="3.5" ry="3.5" style="stroke:#181818;stroke-width:0.5;" width="290" x="878" y="300"/><ellipse cx="960.25" cy="316" fill="#ADD1B2" rx="11" ry="11" style="stroke:#181818;stroke-width:1.0;"/><path d="M962.5938,311.6719 C961.6563,311.2344 961.0625,311.0938 960.1875,311.0938 C957.5625,311.0938 955.5625,313.1719 955.5625,315.8906 L955.5625,317.0156 C955.5625,319.5938 957.6719,321.4844 960.5625,321.4844 C961.7813,321.4844 962.9375,321.1875 963.6875,320.6406 C964.2656,320.2344 964.5938,319.7813 964.5938,319.3906 C964.5938,318.9375 964.2031,318.5469 963.7344,318.5469 C963.5156,318.5469 963.3125,318.625 963.125,318.8125 C962.6719,319.2969 962.6719,319.2969 962.4844,319.3906 C962.0625,319.6563 961.375,319.7813 960.6094,319.7813 C958.5625,319.7813 957.2656,318.6875 957.2656,316.9844 L957.2656,315.8906 C957.2656,314.1094 958.5156,312.7969 960.25,312.7969 C960.8281,312.7969 961.4375,312.9531 961.9063,313.2031 C962.3906,313.4844 962.5625,313.7031 962.6563,314.1094 C962.7188,314.5156 962.75,314.6406 962.8906,314.7656 C963.0313,314.9063 963.2656,315.0156 963.4844,315.0156 C963.75,315.0156 964.0156,314.875 964.1875,314.6563 C964.2969,314.5 964.3281,314.3125 964.3281,313.8906 L964.3281,312.4688 C964.3281,312.0313 964.3125,311.9063 964.2188,311.75 C964.0625,311.4844 963.7813,311.3438 963.4844,311.3438 C963.1875,311.3438 962.9844,311.4375 962.7656,311.75 L962.5938,311.6719 Z " fill="#000000"/><text fill="#000000" font-family="sans-serif" font-size="14" lengthAdjust="spacing" textLength="117" x="980.75" y="320.8467">NetworkDijkstra</text><line style="stroke:#181818;stroke-width:0.5;" x1="879" x2="1167" y1="332" y2="332"/><ellipse cx="889" cy="345.6484" fill="none" rx="3" ry="3" style="stroke:#038048;stroke-width:1.0;"/><text fill="#000000" font-family="sans-serif" font-size="14" lengthAdjust="spacing" textLength="50" x="898" y="348.9951">src: int</text><ellipse cx="889" cy="361.9453" fill="none" rx="3" ry="3" style="stroke:#038048;stroke-width:1.0;"/><text fill="#000000" font-family="sans-serif" font-size="14" lengthAdjust="spacing" textLength="214" x="898" y="365.292">property dists: Dict[int, float]</text><ellipse cx="889" cy="378.2422" fill="none" rx="3" ry="3" style="stroke:#038048;stroke-width:1.0;"/><text fill="#000000" font-family="sans-serif" font-size="14" lengthAdjust="spacing" textLength="197" x="898" y="381.5889">property pars: Dict[int, int]</text><ellipse cx="889" cy="394.5391" fill="none" rx="3" ry="3" style="stroke:#038048;stroke-width:1.0;"/><text fill="#000000" font-family="sans-serif" font-size="14" lengthAdjust="spacing" textLength="219" x="898" y="397.8857">property count_paths: list[int]</text><line style="stroke:#181818;stroke-width:0.5;" x1="879" x2="1167" y1="405.1875" y2="405.1875"/><ellipse cx="889" cy="418.8359" fill="#84BE84" rx="3" ry="3" style="stroke:#038048;stroke-width:1.0;"/><text fill="#000000" font-family="sans-serif" font-size="14" lengthAdjust="spacing" textLength="264" x="898" y="422.1826">from_net(self, net: Network, src: int)</text></g><!--class NetworkAnalysisBetweenness--><g id="elem_NetworkAnalysisBetweenness"><rect codeLine="24" fill="#F1F1F1" height="96.8906" id="NetworkAnalysisBetweenness" rx="3.5" ry="3.5" style="stroke:#181818;stroke-width:0.5;" width="442" x="545" y="41"/><ellipse cx="654.75" cy="57" fill="#ADD1B2" rx="11" ry="11" style="stroke:#181818;stroke-width:1.0;"/><path d="M657.0938,52.6719 C656.1563,52.2344 655.5625,52.0938 654.6875,52.0938 C652.0625,52.0938 650.0625,54.1719 650.0625,56.8906 L650.0625,58.0156 C650.0625,60.5938 652.1719,62.4844 655.0625,62.4844 C656.2813,62.4844 657.4375,62.1875 658.1875,61.6406 C658.7656,61.2344 659.0938,60.7813 659.0938,60.3906 C659.0938,59.9375 658.7031,59.5469 658.2344,59.5469 C658.0156,59.5469 657.8125,59.625 657.625,59.8125 C657.1719,60.2969 657.1719,60.2969 656.9844,60.3906 C656.5625,60.6563 655.875,60.7813 655.1094,60.7813 C653.0625,60.7813 651.7656,59.6875 651.7656,57.9844 L651.7656,56.8906 C651.7656,55.1094 653.0156,53.7969 654.75,53.7969 C655.3281,53.7969 655.9375,53.9531 656.4063,54.2031 C656.8906,54.4844 657.0625,54.7031 657.1563,55.1094 C657.2188,55.5156 657.25,55.6406 657.3906,55.7656 C657.5313,55.9063 657.7656,56.0156 657.9844,56.0156 C658.25,56.0156 658.5156,55.875 658.6875,55.6563 C658.7969,55.5 658.8281,55.3125 658.8281,54.8906 L658.8281,53.4688 C658.8281,53.0313 658.8125,52.9063 658.7188,52.75 C658.5625,52.4844 658.2813,52.3438 657.9844,52.3438 C657.6875,52.3438 657.4844,52.4375 657.2656,52.75 L657.0938,52.6719 Z " fill="#000000"/><text fill="#000000" font-family="sans-serif" font-size="14" lengthAdjust="spacing" textLength="214" x="675.25" y="61.8467">NetworkAnalysisBetweenness</text><line style="stroke:#181818;stroke-width:0.5;" x1="546" x2="986" y1="73" y2="73"/><ellipse cx="556" cy="86.6484" fill="none" rx="3" ry="3" style="stroke:#038048;stroke-width:1.0;"/><text fill="#000000" font-family="sans-serif" font-size="14" lengthAdjust="spacing" textLength="212" x="565" y="89.9951">property scores: Dict[int, int]</text><line style="stroke:#181818;stroke-width:0.5;" x1="546" x2="986" y1="97.2969" y2="97.2969"/><ellipse cx="556" cy="110.9453" fill="#84BE84" rx="3" ry="3" style="stroke:#038048;stroke-width:1.0;"/><text fill="#000000" font-family="sans-serif" font-size="14" lengthAdjust="spacing" textLength="416" x="565" y="114.292">from_net(net: Network, dijkstra_engine: NetworkDijkstra)</text><ellipse cx="556" cy="127.2422" fill="#84BE84" rx="3" ry="3" style="stroke:#038048;stroke-width:1.0;"/><text fill="#000000" font-family="sans-serif" font-size="14" lengthAdjust="spacing" textLength="166" x="565" y="130.5889">top_scores() -&gt; list[int]</text></g><!--class BusNetworkConnector--><g id="elem_BusNetworkConnector"><rect codeLine="30" fill="#F1F1F1" height="129.4844" id="BusNetworkConnector" rx="3.5" ry="3.5" style="stroke:#181818;stroke-width:0.5;" width="259" x="22.5" y="591"/><ellipse cx="66.75" cy="607" fill="#ADD1B2" rx="11" ry="11" style="stroke:#181818;stroke-width:1.0;"/><path d="M69.0938,602.6719 C68.1563,602.2344 67.5625,602.0938 66.6875,602.0938 C64.0625,602.0938 62.0625,604.1719 62.0625,606.8906 L62.0625,608.0156 C62.0625,610.5938 64.1719,612.4844 67.0625,612.4844 C68.2813,612.4844 69.4375,612.1875 70.1875,611.6406 C70.7656,611.2344 71.0938,610.7813 71.0938,610.3906 C71.0938,609.9375 70.7031,609.5469 70.2344,609.5469 C70.0156,609.5469 69.8125,609.625 69.625,609.8125 C69.1719,610.2969 69.1719,610.2969 68.9844,610.3906 C68.5625,610.6563 67.875,610.7813 67.1094,610.7813 C65.0625,610.7813 63.7656,609.6875 63.7656,607.9844 L63.7656,606.8906 C63.7656,605.1094 65.0156,603.7969 66.75,603.7969 C67.3281,603.7969 67.9375,603.9531 68.4063,604.2031 C68.8906,604.4844 69.0625,604.7031 69.1563,605.1094 C69.2188,605.5156 69.25,605.6406 69.3906,605.7656 C69.5313,605.9063 69.7656,606.0156 69.9844,606.0156 C70.25,606.0156 70.5156,605.875 70.6875,605.6563 C70.7969,605.5 70.8281,605.3125 70.8281,604.8906 L70.8281,603.4688 C70.8281,603.0313 70.8125,602.9063 70.7188,602.75 C70.5625,602.4844 70.2813,602.3438 69.9844,602.3438 C69.6875,602.3438 69.4844,602.4375 69.2656,602.75 L69.0938,602.6719 Z " fill="#000000"/><text fill="#000000" font-family="sans-serif" font-size="14" lengthAdjust="spacing" textLength="162" x="87.25" y="611.8467">BusNetworkConnector</text><line style="stroke:#181818;stroke-width:0.5;" x1="23.5" x2="280.5" y1="623" y2="623"/><ellipse cx="33.5" cy="636.6484" fill="none" rx="3" ry="3" style="stroke:#038048;stroke-width:1.0;"/><text fill="#000000" font-family="sans-serif" font-size="14" lengthAdjust="spacing" textLength="171" x="42.5" y="639.9951">route_ids: tuple[int, int]</text><ellipse cx="33.5" cy="652.9453" fill="none" rx="3" ry="3" style="stroke:#038048;stroke-width:1.0;"/><text fill="#000000" font-family="sans-serif" font-size="14" lengthAdjust="spacing" textLength="77" x="42.5" y="656.292">time: float</text><ellipse cx="33.5" cy="669.2422" fill="none" rx="3" ry="3" style="stroke:#038048;stroke-width:1.0;"/><text fill="#000000" font-family="sans-serif" font-size="14" lengthAdjust="spacing" textLength="90" x="42.5" y="672.5889">length: float</text><ellipse cx="33.5" cy="685.5391" fill="none" rx="3" ry="3" style="stroke:#038048;stroke-width:1.0;"/><text fill="#000000" font-family="sans-serif" font-size="14" lengthAdjust="spacing" textLength="233" x="42.5" y="688.8857">real_path: list[tuple[float, float]]</text><line style="stroke:#181818;stroke-width:0.5;" x1="23.5" x2="280.5" y1="696.1875" y2="696.1875"/><ellipse cx="33.5" cy="709.8359" fill="#84BE84" rx="3" ry="3" style="stroke:#038048;stroke-width:1.0;"/><text fill="#000000" font-family="sans-serif" font-size="14" lengthAdjust="spacing" textLength="118" x="42.5" y="713.1826">weight() -&gt; float</text></g><!--class BusNetwork--><g id="elem_BusNetwork"><rect codeLine="38" fill="#F1F1F1" height="113.1875" id="BusNetwork" rx="3.5" ry="3.5" style="stroke:#181818;stroke-width:0.5;" width="532" x="372" y="599"/><ellipse cx="443.25" cy="615" fill="#ADD1B2" rx="11" ry="11" style="stroke:#181818;stroke-width:1.0;"/><path d="M445.5938,610.6719 C444.6563,610.2344 444.0625,610.0938 443.1875,610.0938 C440.5625,610.0938 438.5625,612.1719 438.5625,614.8906 L438.5625,616.0156 C438.5625,618.5938 440.6719,620.4844 443.5625,620.4844 C444.7813,620.4844 445.9375,620.1875 446.6875,619.6406 C447.2656,619.2344 447.5938,618.7813 447.5938,618.3906 C447.5938,617.9375 447.2031,617.5469 446.7344,617.5469 C446.5156,617.5469 446.3125,617.625 446.125,617.8125 C445.6719,618.2969 445.6719,618.2969 445.4844,618.3906 C445.0625,618.6563 444.375,618.7813 443.6094,618.7813 C441.5625,618.7813 440.2656,617.6875 440.2656,615.9844 L440.2656,614.8906 C440.2656,613.1094 441.5156,611.7969 443.25,611.7969 C443.8281,611.7969 444.4375,611.9531 444.9063,612.2031 C445.3906,612.4844 445.5625,612.7031 445.6563,613.1094 C445.7188,613.5156 445.75,613.6406 445.8906,613.7656 C446.0313,613.9063 446.2656,614.0156 446.4844,614.0156 C446.75,614.0156 447.0156,613.875 447.1875,613.6563 C447.2969,613.5 447.3281,613.3125 447.3281,612.8906 L447.3281,611.4688 C447.3281,611.0313 447.3125,610.9063 447.2188,610.75 C447.0625,610.4844 446.7813,610.3438 446.4844,610.3438 C446.1875,610.3438 445.9844,610.4375 445.7656,610.75 L445.5938,610.6719 Z " fill="#000000"/><text fill="#000000" font-family="sans-serif" font-size="14" lengthAdjust="spacing" textLength="381" x="463.75" y="619.8467">BusNetwork = Network[Stop, BusNetworkConnector]</text><line style="stroke:#181818;stroke-width:0.5;" x1="373" x2="903" y1="631" y2="631"/><line style="stroke:#181818;stroke-width:0.5;" x1="373" x2="903" y1="639" y2="639"/><ellipse cx="383" cy="652.6484" fill="#84BE84" rx="3" ry="3" style="stroke:#038048;stroke-width:1.0;"/><text fill="#000000" font-family="sans-serif" font-size="14" lengthAdjust="spacing" textLength="244" x="392" y="655.9951">from_json(file: str) -&gt; BusNetwork</text><ellipse cx="383" cy="668.9453" fill="#84BE84" rx="3" ry="3" style="stroke:#038048;stroke-width:1.0;"/><text fill="#000000" font-family="sans-serif" font-size="14" lengthAdjust="spacing" textLength="506" x="392" y="672.292">from_ndjsons(sides_set_type: str = "spatial", **kwargs) -&gt; BusNetwork</text><ellipse cx="383" cy="685.2422" fill="#84BE84" rx="3" ry="3" style="stroke:#038048;stroke-width:1.0;"/><text fill="#000000" font-family="sans-serif" font-size="14" lengthAdjust="spacing" textLength="114" x="392" y="688.5889">to_dict() -&gt; dict</text><ellipse cx="383" cy="701.5391" fill="#84BE84" rx="3" ry="3" style="stroke:#038048;stroke-width:1.0;"/><text fill="#000000" font-family="sans-serif" font-size="14" lengthAdjust="spacing" textLength="176" x="392" y="704.8857">to_json(file: str) -&gt; None</text></g><!--class BusNetworkDijkstra--><g id="elem_BusNetworkDijkstra"><rect codeLine="45" fill="#F1F1F1" height="80.5938" id="BusNetworkDijkstra" rx="3.5" ry="3.5" style="stroke:#181818;stroke-width:0.5;" width="376" x="939" y="615"/><ellipse cx="1051.75" cy="631" fill="#ADD1B2" rx="11" ry="11" style="stroke:#181818;stroke-width:1.0;"/><path d="M1054.0938,626.6719 C1053.1563,626.2344 1052.5625,626.0938 1051.6875,626.0938 C1049.0625,626.0938 1047.0625,628.1719 1047.0625,630.8906 L1047.0625,632.0156 C1047.0625,634.5938 1049.1719,636.4844 1052.0625,636.4844 C1053.2813,636.4844 1054.4375,636.1875 1055.1875,635.6406 C1055.7656,635.2344 1056.0938,634.7813 1056.0938,634.3906 C1056.0938,633.9375 1055.7031,633.5469 1055.2344,633.5469 C1055.0156,633.5469 1054.8125,633.625 1054.625,633.8125 C1054.1719,634.2969 1054.1719,634.2969 1053.9844,634.3906 C1053.5625,634.6563 1052.875,634.7813 1052.1094,634.7813 C1050.0625,634.7813 1048.7656,633.6875 1048.7656,631.9844 L1048.7656,630.8906 C1048.7656,629.1094 1050.0156,627.7969 1051.75,627.7969 C1052.3281,627.7969 1052.9375,627.9531 1053.4063,628.2031 C1053.8906,628.4844 1054.0625,628.7031 1054.1563,629.1094 C1054.2188,629.5156 1054.25,629.6406 1054.3906,629.7656 C1054.5313,629.9063 1054.7656,630.0156 1054.9844,630.0156 C1055.25,630.0156 1055.5156,629.875 1055.6875,629.6563 C1055.7969,629.5 1055.8281,629.3125 1055.8281,628.8906 L1055.8281,627.4688 C1055.8281,627.0313 1055.8125,626.9063 1055.7188,626.75 C1055.5625,626.4844 1055.2813,626.3438 1054.9844,626.3438 C1054.6875,626.3438 1054.4844,626.4375 1054.2656,626.75 L1054.0938,626.6719 Z " fill="#000000"/><text fill="#000000" font-family="sans-serif" font-size="14" lengthAdjust="spacing" textLength="142" x="1072.25" y="635.8467">BusNetworkDijkstra</text><line style="stroke:#181818;stroke-width:0.5;" x1="940" x2="1314" y1="647" y2="647"/><line style="stroke:#181818;stroke-width:0.5;" x1="940" x2="1314" y1="655" y2="655"/><ellipse cx="950" cy="668.6484" fill="#84BE84" rx="3" ry="3" style="stroke:#038048;stroke-width:1.0;"/><text fill="#000000" font-family="sans-serif" font-size="14" lengthAdjust="spacing" textLength="224" x="959" y="671.9951">path_to_json(dest: int, file: str)</text><ellipse cx="950" cy="684.9453" fill="#84BE84" rx="3" ry="3" style="stroke:#038048;stroke-width:1.0;"/><text fill="#000000" font-family="sans-serif" font-size="14" lengthAdjust="spacing" textLength="350" x="959" y="688.292">shortest_path_to_json(src: int, dest: int, file: str)</text></g><!--reverse link NetworkConnector to Network--><g id="link_NetworkConnector_Network"><path codeLine="50" d="M386.663,364.5 C416.076,364.5 434.961,364.5 464.811,364.5 " fill="none" id="NetworkConnector-backto-Network" style="stroke:#454645;stroke-width:1.0;"/><polygon fill="none" points="374.663,364.5,380.663,368.5,386.663,364.5,380.663,360.5,374.663,364.5" style="stroke:#454645;stroke-width:1.0;"/><text fill="#000000" font-family="sans-serif" font-size="13" lengthAdjust="spacing" textLength="54" x="392.75" y="357.5669">contains</text></g><!--reverse link Network to NetworkDijkstra--><g id="link_Network_NetworkDijkstra"><path codeLine="51" d="M817.073,364.5 C839.344,364.5 855.966,364.5 877.73,364.5 " fill="none" id="Network-backto-NetworkDijkstra" style="stroke:#454645;stroke-width:1.0;"/><polygon fill="#454645" points="811.073,364.5,820.073,368.5,816.073,364.5,820.073,360.5,811.073,364.5" style="stroke:#454645;stroke-width:1.0;"/><text fill="#000000" font-family="sans-serif" font-size="13" lengthAdjust="spacing" textLength="30" x="829.5" y="357.5669">uses</text></g><!--reverse link Network to BusNetwork--><g id="link_Network_BusNetwork"><path codeLine="53" d="M638,423.078 C638,473.243 638,542.01 638,598.832 " fill="none" id="Network-backto-BusNetwork" style="stroke:#454645;stroke-width:1.0;"/><polygon fill="none" points="638,405.078,632,423.078,644,423.078,638,405.078" style="stroke:#454645;stroke-width:1.0;"/><text fill="#000000" font-family="sans-serif" font-size="13" lengthAdjust="spacing" textLength="43" x="639" y="505.0669">&#171;bind&#187;</text></g><!--reverse link NetworkConnector to BusNetworkConnector--><g id="link_NetworkConnector_BusNetworkConnector"><path codeLine="54" d="M202.3172,430.7833 C191.3912,479.3613 178.341,537.382 166.283,590.994 " fill="none" id="NetworkConnector-backto-BusNetworkConnector" style="stroke:#454645;stroke-width:1.0;"/><polygon fill="none" points="206.267,413.222,196.4634,429.4667,208.1709,432.0999,206.267,413.222" style="stroke:#454645;stroke-width:1.0;"/></g><!--reverse link NetworkDijkstra to BusNetworkDijkstra--><g id="link_NetworkDijkstra_BusNetworkDijkstra"><path codeLine="55" d="M1052.0454,446.2165 C1072.4454,502.8995 1095.53,567.045 1112.74,614.882 " fill="none" id="NetworkDijkstra-backto-BusNetworkDijkstra" style="stroke:#454645;stroke-width:1.0;"/><polygon fill="none" points="1045.95,429.28,1046.3999,448.2483,1057.6909,444.1847,1045.95,429.28" style="stroke:#454645;stroke-width:1.0;"/></g><!--reverse link BusNetworkConnector to BusNetwork--><g id="link_BusNetworkConnector_BusNetwork"><path codeLine="57" d="M293.601,655.5 C321.72,655.5 340.451,655.5 371.7,655.5 " fill="none" id="BusNetworkConnector-backto-BusNetwork" style="stroke:#454645;stroke-width:1.0;"/><polygon fill="none" points="281.601,655.5,287.601,659.5,293.601,655.5,287.601,651.5,281.601,655.5" style="stroke:#454645;stroke-width:1.0;"/><text fill="#000000" font-family="sans-serif" font-size="13" lengthAdjust="spacing" textLength="54" x="299.75" y="648.5669">contains</text></g><!--link NetworkAnalysisBetweenness to NetworkDijkstra--><g id="link_NetworkAnalysisBetweenness_NetworkDijkstra"><path codeLine="59" d="M810.766,138.053 C852.975,182.89 912.4213,246.0363 958.9823,295.4963 " fill="none" id="NetworkAnalysisBetweenness-to-NetworkDijkstra" style="stroke:#454645;stroke-width:1.0;"/><polygon fill="#454645" points="963.095,299.865,959.8385,290.5701,959.6678,296.2244,954.0135,296.0537,963.095,299.865" style="stroke:#454645;stroke-width:1.0;"/><text fill="#000000" font-family="sans-serif" font-size="13" lengthAdjust="spacing" textLength="30" x="886" y="214.0669">uses</text></g><!--link NetworkAnalysisBetweenness to Network--><g id="link_NetworkAnalysisBetweenness_Network"><path codeLine="60" d="M743.704,138.053 C719.065,190.605 682.3651,268.8775 659.2621,318.1515 " fill="none" id="NetworkAnalysisBetweenness-to-Network" style="stroke:#454645;stroke-width:1.0;"/><polygon fill="#454645" points="656.715,323.584,664.1574,317.1333,658.8376,319.0569,656.914,313.7372,656.715,323.584" style="stroke:#454645;stroke-width:1.0;"/><text fill="#000000" font-family="sans-serif" font-size="13" lengthAdjust="spacing" textLength="57" x="714" y="214.0669">analyses</text></g><text fill="#888888" font-family="sans-serif" font-size="10" lengthAdjust="spacing" textLength="74" x="602" y="751.2822">Generated by</text><text fill="#888888" font-family="sans-serif" font-size="10" font-style="italic" lengthAdjust="spacing" textLength="43" x="679" y="751.2822">py2puml</text><!--SRC=[ZLN1Rjf04BtxAwQSI8g3rAD5a9gcgd91bPfRXAp57c33UjVQ6JT2RVwzipOs64pK2x0xRsRUUpkxVE8j5WY_zSehoz6dqgjDeQ0YVBACli1SAyQVAjkf3HAibI6CQATjgRmgm6YBl2yHIcVsOH55cL548Djlpk_k5ittDsSjPkmy_8a0FfVUbUXv3-Ip1BGqFjtCaRZRVKEzsVBu1k8vh8rJ3FUmSFnKb4Q82yVyk_UXhbeHUvNnU_H-XSJiUU5odC3pEQdv6IihC4hWKMVy8ZH2XkmiUnYLlvv1peekh_9urA-xmBNfEco19kwLhwNt6SW9z23oqGTahhASbegtWZDIyQM5hBqhKc4r9ZJhIU2Nm87Sf3kJcmi1gRBAx4bJg-JhOVqWIqGHBjYp0ywSnq6Q7OT-z_nWJefs8_FKHLhJRa8kkp9jAZU3SHJNKLvL98Nl7YeQ7a7lAiPKvyADAvcbFZdMXRIkJGzB8sHuUxBXKPdQsOEnJOawt9xLSd1wFo08Yc1qihnlfR_y4hqJ692o73LYQYzVoTdnMXiXBaRLBOyfHyVpWACnQPdnb93JS7_h5Eau8X6bbHbDuFPszwRyXWOAiKjpESz6LlXrs1nWi73o9bpNtByAmT2qhTEz0c9eLxA-C5ldMO9f3zvExGI64uN3nI2uEFPnwt8YzyMoqfPQ8CnEmYtJ9BoD51qnV-CuZqyCWWHcivMs-Nn-sV42tOMYSqSke6qaYeQ6kj5oZ9p8YJwuhQ77_8h6_qrBe7aNWYrhv-Hl0twWHIz_73cizZ2TblilPLMOwVGV]--></g></svg>