<?xml version="1.0" encoding="UTF-8" standalone="no"?><svg xmlns="http://www.w3.org/2000/svg" xmlns:xlink="http://www.w3.org/1999/xlink" contentStyleType="text/css" height="286px" preserveAspectRatio="none" style="width:476px;height:286px;background:#FFFFFF;" version="1.1" viewBox="0 0 476 286" width="476px" zoomAndPan="magnify"><defs/><g><!--MD5=[db94511ff73c25040c57072aa4771965]
class Path--><g id="elem_Path"><rect codeLine="4" fill="#F1F1F1" height="96.8906" id="Path" rx="3.5" ry="3.5" style="stroke:#181818;stroke-width:0.5;" width="462" x="7" y="7"/><ellipse cx="218.25" cy="23" fill="#ADD1B2" rx="11" ry="11" style="stroke:#181818;stroke-width:1.0;"/><path d="M221.2188,28.6406 Q220.6406,28.9375 220,29.0781 Q219.3594,29.2344 218.6563,29.2344 Q216.1563,29.2344 214.8281,27.5938 Q213.5156,25.9375 213.5156,22.8125 Q213.5156,19.6875 214.8281,18.0313 Q216.1563,16.375 218.6563,16.375 Q219.3594,16.375 220,16.5313 Q220.6563,16.6875 221.2188,16.9844 L221.2188,19.7031 Q220.5938,19.125 220,18.8594 Q219.4063,18.5781 218.7813,18.5781 Q217.4375,18.5781 216.75,19.6563 Q216.0625,20.7188 216.0625,22.8125 Q216.0625,24.9063 216.75,25.9844 Q217.4375,27.0469 218.7813,27.0469 Q219.4063,27.0469 220,26.7813 Q220.5938,26.5 221.2188,25.9219 L221.2188,28.6406 Z " fill="#000000"/><text fill="#000000" font-family="sans-serif" font-size="14" lengthAdjust="spacing" textLength="31" x="238.75" y="27.8467">Path</text><line style="stroke:#181818;stroke-width:0.5;" x1="8" x2="468" y1="39" y2="39"/><ellipse cx="18" cy="52.6484" fill="none" rx="3" ry="3" style="stroke:#038048;stroke-width:1.0;"/><text fill="#000000" font-family="sans-serif" font-size="14" lengthAdjust="spacing" text-decoration="underline" textLength="160" x="27" y="55.9951">route_ids: tuple[int, int]</text><ellipse cx="18" cy="68.9453" fill="none" rx="3" ry="3" style="stroke:#038048;stroke-width:1.0;"/><text fill="#000000" font-family="sans-serif" font-size="14" lengthAdjust="spacing" text-decoration="underline" textLength="197" x="27" y="72.292">coords: list[tuple[float, float]]</text><line style="stroke:#181818;stroke-width:0.5;" x1="8" x2="468" y1="79.5938" y2="79.5938"/><ellipse cx="18" cy="93.2422" fill="#84BE84" rx="3" ry="3" style="stroke:#038048;stroke-width:1.0;"/><text fill="#000000" font-family="sans-serif" font-size="14" lengthAdjust="spacing" textLength="436" x="27" y="96.5889">polysides() -&gt; Iterable[tuple[tuple[float, float], tuple[float, float]]]</text></g><!--MD5=[68f5feaa4a710662c1ef18b4aba8ac38]
class PathInputMixin--><g id="elem_PathInputMixin"><rect codeLine="9" fill="#F1F1F1" height="80.5938" id="PathInputMixin" rx="3.5" ry="3.5" style="stroke:#181818;stroke-width:0.5;" width="205" x="29.5" y="172"/><ellipse cx="77.75" cy="188" fill="#ADD1B2" rx="11" ry="11" style="stroke:#181818;stroke-width:1.0;"/><path d="M80.7188,193.6406 Q80.1406,193.9375 79.5,194.0781 Q78.8594,194.2344 78.1563,194.2344 Q75.6563,194.2344 74.3281,192.5938 Q73.0156,190.9375 73.0156,187.8125 Q73.0156,184.6875 74.3281,183.0313 Q75.6563,181.375 78.1563,181.375 Q78.8594,181.375 79.5,181.5313 Q80.1563,181.6875 80.7188,181.9844 L80.7188,184.7031 Q80.0938,184.125 79.5,183.8594 Q78.9063,183.5781 78.2813,183.5781 Q76.9375,183.5781 76.25,184.6563 Q75.5625,185.7188 75.5625,187.8125 Q75.5625,189.9063 76.25,190.9844 Q76.9375,192.0469 78.2813,192.0469 Q78.9063,192.0469 79.5,191.7813 Q80.0938,191.5 80.7188,190.9219 L80.7188,193.6406 Z " fill="#000000"/><text fill="#000000" font-family="sans-serif" font-size="14" lengthAdjust="spacing" textLength="100" x="98.25" y="192.8467">PathInputMixin</text><line style="stroke:#181818;stroke-width:0.5;" x1="30.5" x2="233.5" y1="204" y2="204"/><line style="stroke:#181818;stroke-width:0.5;" x1="30.5" x2="233.5" y1="212" y2="212"/><ellipse cx="40.5" cy="225.6484" fill="#84BE84" rx="3" ry="3" style="stroke:#038048;stroke-width:1.0;"/><text fill="#000000" font-family="sans-serif" font-size="14" lengthAdjust="spacing" textLength="178" x="49.5" y="228.9951">from_dict(kwargs) -&gt; Path</text><ellipse cx="40.5" cy="241.9453" fill="#84BE84" rx="3" ry="3" style="stroke:#038048;stroke-width:1.0;"/><text fill="#000000" font-family="sans-serif" font-size="14" lengthAdjust="spacing" textLength="179" x="49.5" y="245.292">from_json(file: str) -&gt; Path</text></g><!--MD5=[a8c7ef965b74b16d59aba6c9e4a977f1]
class PathOutputMixin--><g id="elem_PathOutputMixin"><rect codeLine="13" fill="#F1F1F1" height="96.8906" id="PathOutputMixin" rx="3.5" ry="3.5" style="stroke:#181818;stroke-width:0.5;" width="148" x="270" y="164"/><ellipse cx="286.35" cy="180" fill="#ADD1B2" rx="11" ry="11" style="stroke:#181818;stroke-width:1.0;"/><path d="M289.3188,185.6406 Q288.7406,185.9375 288.1,186.0781 Q287.4594,186.2344 286.7563,186.2344 Q284.2563,186.2344 282.9281,184.5938 Q281.6156,182.9375 281.6156,179.8125 Q281.6156,176.6875 282.9281,175.0313 Q284.2563,173.375 286.7563,173.375 Q287.4594,173.375 288.1,173.5313 Q288.7563,173.6875 289.3188,173.9844 L289.3188,176.7031 Q288.6938,176.125 288.1,175.8594 Q287.5063,175.5781 286.8813,175.5781 Q285.5375,175.5781 284.85,176.6563 Q284.1625,177.7188 284.1625,179.8125 Q284.1625,181.9063 284.85,182.9844 Q285.5375,184.0469 286.8813,184.0469 Q287.5063,184.0469 288.1,183.7813 Q288.6938,183.5 289.3188,182.9219 L289.3188,185.6406 Z " fill="#000000"/><text fill="#000000" font-family="sans-serif" font-size="14" lengthAdjust="spacing" textLength="113" x="300.65" y="184.8467">PathOutputMixin</text><line style="stroke:#181818;stroke-width:0.5;" x1="271" x2="417" y1="196" y2="196"/><line style="stroke:#181818;stroke-width:0.5;" x1="271" x2="417" y1="204" y2="204"/><ellipse cx="281" cy="217.6484" fill="#84BE84" rx="3" ry="3" style="stroke:#038048;stroke-width:1.0;"/><text fill="#000000" font-family="sans-serif" font-size="14" lengthAdjust="spacing" textLength="113" x="290" y="220.9951">to_string() -&gt; str</text><ellipse cx="281" cy="233.9453" fill="#84BE84" rx="3" ry="3" style="stroke:#038048;stroke-width:1.0;"/><text fill="#000000" font-family="sans-serif" font-size="14" lengthAdjust="spacing" textLength="106" x="290" y="237.292">to_dict() -&gt; dict</text><ellipse cx="281" cy="250.2422" fill="#84BE84" rx="3" ry="3" style="stroke:#038048;stroke-width:1.0;"/><text fill="#000000" font-family="sans-serif" font-size="14" lengthAdjust="spacing" textLength="122" x="290" y="253.5889">to_json() -&gt; None</text></g><!--MD5=[f0d32380e10c987155424ed053d2f92a]
link Path to PathInputMixin--><g id="link_Path_PathInputMixin"><path codeLine="18" d="M205.33,104.27 C194.32,120.38 181.92,138.51 170.49,155.21 " fill="none" id="Path-to-PathInputMixin" style="stroke:#454645;stroke-width:1.0;"/><polygon fill="none" points="176.11,159.4,159.04,171.96,164.55,151.5,176.11,159.4" style="stroke:#454645;stroke-width:1.0;"/></g><!--MD5=[13eeed9f351df17ebb76b243963552c0]
link Path to PathOutputMixin--><g id="link_Path_PathOutputMixin"><path codeLine="19" d="M270.67,104.27 C279.98,117.89 290.28,132.95 300.15,147.37 " fill="none" id="Path-to-PathOutputMixin" style="stroke:#454645;stroke-width:1.0;"/><polygon fill="none" points="305.93,143.43,311.44,163.89,294.37,151.33,305.93,143.43" style="stroke:#454645;stroke-width:1.0;"/></g><rect fill="#FFFFFF" height="11.6406" rx="3.5" ry="3.5" style="stroke:none;stroke-width:1.0;" width="112" x="175" y="266.8906"/><text fill="#888888" font-family="sans-serif" font-size="10" lengthAdjust="spacing" textLength="67" x="175" y="276.1729">Generated by</text><text fill="#888888" font-family="sans-serif" font-size="10" font-style="italic" lengthAdjust="spacing" textLength="42" x="245" y="276.1729">py2puml</text><!--MD5=[4856cfe3e73926b62089ca8524f67395]
@startuml
!theme vibrant
!pragma useIntermediatePackages false

class Path {
  +route_ids: tuple[int, int] {static}
  +coords: list[tuple[float, float]] {static}
  +polysides() -> Iterable[tuple[tuple[float, float], tuple[float, float]]]
}
class PathInputMixin {
  +from_dict(kwargs) -> Path
  +from_json(file: str) -> Path
}
class PathOutputMixin {
  +to_string() -> str
  +to_dict() -> dict
  +to_json() -> None
}
PathInputMixin <|-u- Path
PathOutputMixin <|-u- Path
footer Generated by //py2puml//
@enduml

@startuml
skinparam BackgroundColor FFFFFF
skinparam shadowing false
skinparam RoundCorner 7
skinparam ArrowColor 454645
skinparam FontColor 454645
skinparam SequenceLifeLineBorderColor 696969
skinparam SequenceGroupHeaderFontColor 454645
skinparam SequenceGroupFontColor 696969
skinparam SequenceGroupBorderColor 696969
skinparam SequenceGroupBorderThickness 1

skinparam sequenceDivider {
    BorderColor 454645
    BorderThickness 1
    FontColor 454645
}

skinparam participant {
    BackgroundColor FF6347
    BorderColor 454645
    FontColor FFFFFF
    BorderThickness 1.5
}

skinparam database {
    BackgroundColor 00FFFF
    BorderColor 454645
    FontColor 454645
}

skinparam entity {
    BackgroundColor FFE552
    BorderColor 454645
    FontColor 454645
}

skinparam note {
    BackgroundColor 7FFFD4
    BorderColor 454645
    FontColor 454645
    BorderThickness 1.5
}

skinparam actor {
    BackgroundColor 454645
    BorderColor 454645
    FontColor 454645
}

skinparam boundary {
    BackgroundColor FFE552
    BorderColor 454645
    FontColor 454645
}

skinparam control {
    BackgroundColor FFE552
    BorderColor 454645
    FontColor 454645
}

skinparam collections {
    BackgroundColor FF5F42
    BorderColor 454645
    FontColor 454645
}

skinparam queue {
    BackgroundColor FF6347
    BorderColor 454645
    FontColor FFF
    BorderThickness 1.5
}
!pragma useIntermediatePackages false

class Path {
  +route_ids: tuple[int, int] {static}
  +coords: list[tuple[float, float]] {static}
  +polysides() -> Iterable[tuple[tuple[float, float], tuple[float, float]]]
}
class PathInputMixin {
  +from_dict(kwargs) -> Path
  +from_json(file: str) -> Path
}
class PathOutputMixin {
  +to_string() -> str
  +to_dict() -> dict
  +to_json() -> None
}
PathInputMixin <|-u- Path
PathOutputMixin <|-u- Path
footer Generated by //py2puml//
@enduml

PlantUML version 1.2022.7(Mon Aug 22 17:01:30 UTC 2022)
(GPL source distribution)
Java Runtime: OpenJDK Runtime Environment
JVM: OpenJDK 64-Bit Server VM
Default Encoding: UTF-8
Language: en
Country: null
--></g></svg>