<?xml version="1.0" encoding="UTF-8" standalone="no"?><svg xmlns="http://www.w3.org/2000/svg" xmlns:xlink="http://www.w3.org/1999/xlink" contentStyleType="text/css" height="481px" preserveAspectRatio="none" style="width:403px;height:481px;background:#FFFFFF;" version="1.1" viewBox="0 0 403 481" width="403px" zoomAndPan="magnify"><defs/><g><!--MD5=[e817ac89aa025528a1ddf8e2c0b98a5e]
class Stop--><g id="elem_Stop"><rect codeLine="4" fill="#F1F1F1" height="292.4531" id="Stop" rx="3.5" ry="3.5" style="stroke:#181818;stroke-width:0.5;" width="184" x="124" y="7"/><ellipse cx="195.75" cy="23" fill="#ADD1B2" rx="11" ry="11" style="stroke:#181818;stroke-width:1.0;"/><path d="M198.7188,28.6406 Q198.1406,28.9375 197.5,29.0781 Q196.8594,29.2344 196.1563,29.2344 Q193.6563,29.2344 192.3281,27.5938 Q191.0156,25.9375 191.0156,22.8125 Q191.0156,19.6875 192.3281,18.0313 Q193.6563,16.375 196.1563,16.375 Q196.8594,16.375 197.5,16.5313 Q198.1563,16.6875 198.7188,16.9844 L198.7188,19.7031 Q198.0938,19.125 197.5,18.8594 Q196.9063,18.5781 196.2813,18.5781 Q194.9375,18.5781 194.25,19.6563 Q193.5625,20.7188 193.5625,22.8125 Q193.5625,24.9063 194.25,25.9844 Q194.9375,27.0469 196.2813,27.0469 Q196.9063,27.0469 197.5,26.7813 Q198.0938,26.5 198.7188,25.9219 L198.7188,28.6406 Z " fill="#000000"/><text fill="#000000" font-family="sans-serif" font-size="14" lengthAdjust="spacing" textLength="32" x="216.25" y="27.8467">Stop</text><line style="stroke:#181818;stroke-width:0.5;" x1="125" x2="307" y1="39" y2="39"/><ellipse cx="135" cy="52.6484" fill="none" rx="3" ry="3" style="stroke:#038048;stroke-width:1.0;"/><text fill="#000000" font-family="sans-serif" font-size="14" lengthAdjust="spacing" text-decoration="underline" textLength="76" x="144" y="55.9951">stop_id: int</text><ellipse cx="135" cy="68.9453" fill="none" rx="3" ry="3" style="stroke:#038048;stroke-width:1.0;"/><text fill="#000000" font-family="sans-serif" font-size="14" lengthAdjust="spacing" text-decoration="underline" textLength="62" x="144" y="72.292">code: str</text><ellipse cx="135" cy="85.2422" fill="none" rx="3" ry="3" style="stroke:#038048;stroke-width:1.0;"/><text fill="#000000" font-family="sans-serif" font-size="14" lengthAdjust="spacing" text-decoration="underline" textLength="66" x="144" y="88.5889">name: str</text><ellipse cx="135" cy="101.5391" fill="none" rx="3" ry="3" style="stroke:#038048;stroke-width:1.0;"/><text fill="#000000" font-family="sans-serif" font-size="14" lengthAdjust="spacing" text-decoration="underline" textLength="95" x="144" y="104.8857">stop_type: str</text><ellipse cx="135" cy="117.8359" fill="none" rx="3" ry="3" style="stroke:#038048;stroke-width:1.0;"/><text fill="#000000" font-family="sans-serif" font-size="14" lengthAdjust="spacing" text-decoration="underline" textLength="62" x="144" y="121.1826">zone: str</text><ellipse cx="135" cy="134.1328" fill="none" rx="3" ry="3" style="stroke:#038048;stroke-width:1.0;"/><text fill="#000000" font-family="sans-serif" font-size="14" lengthAdjust="spacing" text-decoration="underline" textLength="60" x="144" y="137.4795">ward: str</text><ellipse cx="135" cy="150.4297" fill="none" rx="3" ry="3" style="stroke:#038048;stroke-width:1.0;"/><text fill="#000000" font-family="sans-serif" font-size="14" lengthAdjust="spacing" text-decoration="underline" textLength="108" x="144" y="153.7764">address_no: str</text><ellipse cx="135" cy="166.7266" fill="none" rx="3" ry="3" style="stroke:#038048;stroke-width:1.0;"/><text fill="#000000" font-family="sans-serif" font-size="14" lengthAdjust="spacing" text-decoration="underline" textLength="68" x="144" y="170.0732">street: str</text><ellipse cx="135" cy="183.0234" fill="none" rx="3" ry="3" style="stroke:#038048;stroke-width:1.0;"/><text fill="#000000" font-family="sans-serif" font-size="14" lengthAdjust="spacing" text-decoration="underline" textLength="158" x="144" y="186.3701">support_disability: bool</text><ellipse cx="135" cy="199.3203" fill="none" rx="3" ry="3" style="stroke:#038048;stroke-width:1.0;"/><text fill="#000000" font-family="sans-serif" font-size="14" lengthAdjust="spacing" text-decoration="underline" textLength="70" x="144" y="202.667">status: str</text><ellipse cx="135" cy="215.6172" fill="none" rx="3" ry="3" style="stroke:#038048;stroke-width:1.0;"/><text fill="#000000" font-family="sans-serif" font-size="14" lengthAdjust="spacing" text-decoration="underline" textLength="89" x="144" y="218.9639">latitude: float</text><ellipse cx="135" cy="231.9141" fill="none" rx="3" ry="3" style="stroke:#038048;stroke-width:1.0;"/><text fill="#000000" font-family="sans-serif" font-size="14" lengthAdjust="spacing" text-decoration="underline" textLength="108" x="144" y="235.2607">longtitude: float</text><ellipse cx="135" cy="248.2109" fill="none" rx="3" ry="3" style="stroke:#038048;stroke-width:1.0;"/><text fill="#000000" font-family="sans-serif" font-size="14" lengthAdjust="spacing" text-decoration="underline" textLength="136" x="144" y="251.5576">coord: tuple[int, int]</text><ellipse cx="135" cy="264.5078" fill="none" rx="3" ry="3" style="stroke:#038048;stroke-width:1.0;"/><text fill="#000000" font-family="sans-serif" font-size="14" lengthAdjust="spacing" text-decoration="underline" textLength="103" x="144" y="267.8545">search: list[str]</text><ellipse cx="135" cy="280.8047" fill="none" rx="3" ry="3" style="stroke:#038048;stroke-width:1.0;"/><text fill="#000000" font-family="sans-serif" font-size="14" lengthAdjust="spacing" text-decoration="underline" textLength="101" x="144" y="284.1514">routes: list[str]</text><line style="stroke:#181818;stroke-width:0.5;" x1="125" x2="307" y1="291.4531" y2="291.4531"/></g><!--MD5=[b0a8af6da1ff2b117aaa3244d809a464]
class StopInputMixin--><g id="elem_StopInputMixin"><rect codeLine="21" fill="#F1F1F1" height="80.5938" id="StopInputMixin" rx="3.5" ry="3.5" style="stroke:#181818;stroke-width:0.5;" width="206" x="7" y="367"/><ellipse cx="55.25" cy="383" fill="#ADD1B2" rx="11" ry="11" style="stroke:#181818;stroke-width:1.0;"/><path d="M58.2188,388.6406 Q57.6406,388.9375 57,389.0781 Q56.3594,389.2344 55.6563,389.2344 Q53.1563,389.2344 51.8281,387.5938 Q50.5156,385.9375 50.5156,382.8125 Q50.5156,379.6875 51.8281,378.0313 Q53.1563,376.375 55.6563,376.375 Q56.3594,376.375 57,376.5313 Q57.6563,376.6875 58.2188,376.9844 L58.2188,379.7031 Q57.5938,379.125 57,378.8594 Q56.4063,378.5781 55.7813,378.5781 Q54.4375,378.5781 53.75,379.6563 Q53.0625,380.7188 53.0625,382.8125 Q53.0625,384.9063 53.75,385.9844 Q54.4375,387.0469 55.7813,387.0469 Q56.4063,387.0469 57,386.7813 Q57.5938,386.5 58.2188,385.9219 L58.2188,388.6406 Z " fill="#000000"/><text fill="#000000" font-family="sans-serif" font-size="14" lengthAdjust="spacing" textLength="101" x="75.75" y="387.8467">StopInputMixin</text><line style="stroke:#181818;stroke-width:0.5;" x1="8" x2="212" y1="399" y2="399"/><line style="stroke:#181818;stroke-width:0.5;" x1="8" x2="212" y1="407" y2="407"/><ellipse cx="18" cy="420.6484" fill="#84BE84" rx="3" ry="3" style="stroke:#038048;stroke-width:1.0;"/><text fill="#000000" font-family="sans-serif" font-size="14" lengthAdjust="spacing" textLength="179" x="27" y="423.9951">from_dict(kwargs) -&gt; Stop</text><ellipse cx="18" cy="436.9453" fill="#84BE84" rx="3" ry="3" style="stroke:#038048;stroke-width:1.0;"/><text fill="#000000" font-family="sans-serif" font-size="14" lengthAdjust="spacing" textLength="180" x="27" y="440.292">from_json(file: str) -&gt; Stop</text></g><!--MD5=[463be6c8c1642ef65b553f69ad055b76]
class StopOutputMixin--><g id="elem_StopOutputMixin"><rect codeLine="25" fill="#F1F1F1" height="96.8906" id="StopOutputMixin" rx="3.5" ry="3.5" style="stroke:#181818;stroke-width:0.5;" width="148" x="248" y="359"/><ellipse cx="263.9" cy="375" fill="#ADD1B2" rx="11" ry="11" style="stroke:#181818;stroke-width:1.0;"/><path d="M266.8688,380.6406 Q266.2906,380.9375 265.65,381.0781 Q265.0094,381.2344 264.3063,381.2344 Q261.8063,381.2344 260.4781,379.5938 Q259.1656,377.9375 259.1656,374.8125 Q259.1656,371.6875 260.4781,370.0313 Q261.8063,368.375 264.3063,368.375 Q265.0094,368.375 265.65,368.5313 Q266.3063,368.6875 266.8688,368.9844 L266.8688,371.7031 Q266.2438,371.125 265.65,370.8594 Q265.0563,370.5781 264.4313,370.5781 Q263.0875,370.5781 262.4,371.6563 Q261.7125,372.7188 261.7125,374.8125 Q261.7125,376.9063 262.4,377.9844 Q263.0875,379.0469 264.4313,379.0469 Q265.0563,379.0469 265.65,378.7813 Q266.2438,378.5 266.8688,377.9219 L266.8688,380.6406 Z " fill="#000000"/><text fill="#000000" font-family="sans-serif" font-size="14" lengthAdjust="spacing" textLength="114" x="278.1" y="379.8467">StopOutputMixin</text><line style="stroke:#181818;stroke-width:0.5;" x1="249" x2="395" y1="391" y2="391"/><line style="stroke:#181818;stroke-width:0.5;" x1="249" x2="395" y1="399" y2="399"/><ellipse cx="259" cy="412.6484" fill="#84BE84" rx="3" ry="3" style="stroke:#038048;stroke-width:1.0;"/><text fill="#000000" font-family="sans-serif" font-size="14" lengthAdjust="spacing" textLength="113" x="268" y="415.9951">to_string() -&gt; str</text><ellipse cx="259" cy="428.9453" fill="#84BE84" rx="3" ry="3" style="stroke:#038048;stroke-width:1.0;"/><text fill="#000000" font-family="sans-serif" font-size="14" lengthAdjust="spacing" textLength="106" x="268" y="432.292">to_dict() -&gt; dict</text><ellipse cx="259" cy="445.2422" fill="#84BE84" rx="3" ry="3" style="stroke:#038048;stroke-width:1.0;"/><text fill="#000000" font-family="sans-serif" font-size="14" lengthAdjust="spacing" textLength="122" x="268" y="448.5889">to_json() -&gt; None</text></g><!--MD5=[d952073217e132e97021f447eff59363]
link Stop to StopInputMixin--><g id="link_Stop_StopInputMixin"><path codeLine="30" d="M155.11,299.05 C147.82,316.4 140.75,333.26 134.44,348.29 " fill="none" id="Stop-to-StopInputMixin" style="stroke:#454645;stroke-width:1.0;"/><polygon fill="none" points="140.83,351.15,126.63,366.88,127.92,345.73,140.83,351.15" style="stroke:#454645;stroke-width:1.0;"/></g><!--MD5=[0d76b42111b6cdc2b31dc2181881dd30]
link Stop to StopOutputMixin--><g id="link_Stop_StopOutputMixin"><path codeLine="31" d="M276.89,299.05 C282.9,313.36 288.77,327.33 294.18,340.22 " fill="none" id="Stop-to-StopOutputMixin" style="stroke:#454645;stroke-width:1.0;"/><polygon fill="none" points="300.71,337.7,302,358.85,287.8,343.12,300.71,337.7" style="stroke:#454645;stroke-width:1.0;"/></g><rect fill="#FFFFFF" height="11.6406" rx="3.5" ry="3.5" style="stroke:none;stroke-width:1.0;" width="112" x="138.5" y="461.8906"/><text fill="#888888" font-family="sans-serif" font-size="10" lengthAdjust="spacing" textLength="67" x="138.5" y="471.1729">Generated by</text><text fill="#888888" font-family="sans-serif" font-size="10" font-style="italic" lengthAdjust="spacing" textLength="42" x="208.5" y="471.1729">py2puml</text><!--MD5=[c73b51ee9b1d328bce2d0e38b5dd2601]
@startuml
!theme vibrant
!pragma useIntermediatePackages false

class Stop {
  +stop_id: int {static}
  +code: str {static}
  +name: str {static}
  +stop_type: str {static}
  +zone: str {static}
  +ward: str {static}
  +address_no: str {static}
  +street: str {static}
  +support_disability: bool {static}
  +status: str {static}
  +latitude: float {static}
  +longtitude: float {static}
  +coord: tuple[int, int] {static}
  +search: list[str] {static}
  +routes: list[str] {static}
}
class StopInputMixin {
  +from_dict(kwargs) -> Stop
  +from_json(file: str) -> Stop
}
class StopOutputMixin {
  +to_string() -> str
  +to_dict() -> dict
  +to_json() -> None
}
StopInputMixin <|-u- Stop
StopOutputMixin <|-u- Stop
footer Generated by //py2puml//
@enduml

@startuml
skinparam BackgroundColor FFFFFF
skinparam shadowing false
skinparam RoundCorner 7
skinparam ArrowColor 454645
skinparam FontColor 454645
skinparam SequenceLifeLineBorderColor 696969
skinparam SequenceGroupHeaderFontColor 454645
skinparam SequenceGroupFontColor 696969
skinparam SequenceGroupBorderColor 696969
skinparam SequenceGroupBorderThickness 1

skinparam sequenceDivider {
    BorderColor 454645
    BorderThickness 1
    FontColor 454645
}

skinparam participant {
    BackgroundColor FF6347
    BorderColor 454645
    FontColor FFFFFF
    BorderThickness 1.5
}

skinparam database {
    BackgroundColor 00FFFF
    BorderColor 454645
    FontColor 454645
}

skinparam entity {
    BackgroundColor FFE552
    BorderColor 454645
    FontColor 454645
}

skinparam note {
    BackgroundColor 7FFFD4
    BorderColor 454645
    FontColor 454645
    BorderThickness 1.5
}

skinparam actor {
    BackgroundColor 454645
    BorderColor 454645
    FontColor 454645
}

skinparam boundary {
    BackgroundColor FFE552
    BorderColor 454645
    FontColor 454645
}

skinparam control {
    BackgroundColor FFE552
    BorderColor 454645
    FontColor 454645
}

skinparam collections {
    BackgroundColor FF5F42
    BorderColor 454645
    FontColor 454645
}

skinparam queue {
    BackgroundColor FF6347
    BorderColor 454645
    FontColor FFF
    BorderThickness 1.5
}
!pragma useIntermediatePackages false

class Stop {
  +stop_id: int {static}
  +code: str {static}
  +name: str {static}
  +stop_type: str {static}
  +zone: str {static}
  +ward: str {static}
  +address_no: str {static}
  +street: str {static}
  +support_disability: bool {static}
  +status: str {static}
  +latitude: float {static}
  +longtitude: float {static}
  +coord: tuple[int, int] {static}
  +search: list[str] {static}
  +routes: list[str] {static}
}
class StopInputMixin {
  +from_dict(kwargs) -> Stop
  +from_json(file: str) -> Stop
}
class StopOutputMixin {
  +to_string() -> str
  +to_dict() -> dict
  +to_json() -> None
}
StopInputMixin <|-u- Stop
StopOutputMixin <|-u- Stop
footer Generated by //py2puml//
@enduml

PlantUML version 1.2022.7(Mon Aug 22 17:01:30 UTC 2022)
(GPL source distribution)
Java Runtime: OpenJDK Runtime Environment
JVM: OpenJDK 64-Bit Server VM
Default Encoding: UTF-8
Language: en
Country: null
--></g></svg>