<?xml version="1.0" encoding="UTF-8" standalone="no"?><svg xmlns="http://www.w3.org/2000/svg" xmlns:xlink="http://www.w3.org/1999/xlink" contentStyleType="text/css" height="367px" preserveAspectRatio="none" style="width:431px;height:367px;background:#FFFFFF;" version="1.1" viewBox="0 0 431 367" width="431px" zoomAndPan="magnify"><defs/><g><!--MD5=[1c543b756414974002c586ab4d225494]
class Variant--><g id="elem_Variant"><rect codeLine="4" fill="#F1F1F1" height="178.375" id="Variant" rx="3.5" ry="3.5" style="stroke:#181818;stroke-width:0.5;" width="186" x="137.5" y="7"/><ellipse cx="202.75" cy="23" fill="#ADD1B2" rx="11" ry="11" style="stroke:#181818;stroke-width:1.0;"/><path d="M205.7188,28.6406 Q205.1406,28.9375 204.5,29.0781 Q203.8594,29.2344 203.1563,29.2344 Q200.6563,29.2344 199.3281,27.5938 Q198.0156,25.9375 198.0156,22.8125 Q198.0156,19.6875 199.3281,18.0313 Q200.6563,16.375 203.1563,16.375 Q203.8594,16.375 204.5,16.5313 Q205.1563,16.6875 205.7188,16.9844 L205.7188,19.7031 Q205.0938,19.125 204.5,18.8594 Q203.9063,18.5781 203.2813,18.5781 Q201.9375,18.5781 201.25,19.6563 Q200.5625,20.7188 200.5625,22.8125 Q200.5625,24.9063 201.25,25.9844 Q201.9375,27.0469 203.2813,27.0469 Q203.9063,27.0469 204.5,26.7813 Q205.0938,26.5 205.7188,25.9219 L205.7188,28.6406 Z " fill="#000000"/><text fill="#000000" font-family="sans-serif" font-size="14" lengthAdjust="spacing" textLength="47" x="223.25" y="27.8467">Variant</text><line style="stroke:#181818;stroke-width:0.5;" x1="138.5" x2="322.5" y1="39" y2="39"/><ellipse cx="148.5" cy="52.6484" fill="none" rx="3" ry="3" style="stroke:#038048;stroke-width:1.0;"/><text fill="#000000" font-family="sans-serif" font-size="14" lengthAdjust="spacing" text-decoration="underline" textLength="81" x="157.5" y="55.9951">number: str</text><ellipse cx="148.5" cy="68.9453" fill="none" rx="3" ry="3" style="stroke:#038048;stroke-width:1.0;"/><text fill="#000000" font-family="sans-serif" font-size="14" lengthAdjust="spacing" text-decoration="underline" textLength="96" x="157.5" y="72.292">start_stop: str</text><ellipse cx="148.5" cy="85.2422" fill="none" rx="3" ry="3" style="stroke:#038048;stroke-width:1.0;"/><text fill="#000000" font-family="sans-serif" font-size="14" lengthAdjust="spacing" text-decoration="underline" textLength="92" x="157.5" y="88.5889">end_stop: str</text><ellipse cx="148.5" cy="101.5391" fill="none" rx="3" ry="3" style="stroke:#038048;stroke-width:1.0;"/><text fill="#000000" font-family="sans-serif" font-size="14" lengthAdjust="spacing" text-decoration="underline" textLength="128" x="157.5" y="104.8857">property name: str</text><ellipse cx="148.5" cy="117.8359" fill="none" rx="3" ry="3" style="stroke:#038048;stroke-width:1.0;"/><text fill="#000000" font-family="sans-serif" font-size="14" lengthAdjust="spacing" text-decoration="underline" textLength="109" x="157.5" y="121.1826">short_name: str</text><ellipse cx="148.5" cy="134.1328" fill="none" rx="3" ry="3" style="stroke:#038048;stroke-width:1.0;"/><text fill="#000000" font-family="sans-serif" font-size="14" lengthAdjust="spacing" text-decoration="underline" textLength="85" x="157.5" y="137.4795">distance: int</text><ellipse cx="148.5" cy="150.4297" fill="none" rx="3" ry="3" style="stroke:#038048;stroke-width:1.0;"/><text fill="#000000" font-family="sans-serif" font-size="14" lengthAdjust="spacing" text-decoration="underline" textLength="116" x="157.5" y="153.7764">running_time: int</text><ellipse cx="148.5" cy="166.7266" fill="none" rx="3" ry="3" style="stroke:#038048;stroke-width:1.0;"/><text fill="#000000" font-family="sans-serif" font-size="14" lengthAdjust="spacing" text-decoration="underline" textLength="160" x="157.5" y="170.0732">route_ids: tuple[int, int]</text><line style="stroke:#181818;stroke-width:0.5;" x1="138.5" x2="322.5" y1="177.375" y2="177.375"/></g><!--MD5=[1b59b89edb71ecba242bf986f5482296]
class VariantInputMixin--><g id="elem_VariantInputMixin"><rect codeLine="14" fill="#F1F1F1" height="80.5938" id="VariantInputMixin" rx="3.5" ry="3.5" style="stroke:#181818;stroke-width:0.5;" width="221" x="7" y="253"/><ellipse cx="55.25" cy="269" fill="#ADD1B2" rx="11" ry="11" style="stroke:#181818;stroke-width:1.0;"/><path d="M58.2188,274.6406 Q57.6406,274.9375 57,275.0781 Q56.3594,275.2344 55.6563,275.2344 Q53.1563,275.2344 51.8281,273.5938 Q50.5156,271.9375 50.5156,268.8125 Q50.5156,265.6875 51.8281,264.0313 Q53.1563,262.375 55.6563,262.375 Q56.3594,262.375 57,262.5313 Q57.6563,262.6875 58.2188,262.9844 L58.2188,265.7031 Q57.5938,265.125 57,264.8594 Q56.4063,264.5781 55.7813,264.5781 Q54.4375,264.5781 53.75,265.6563 Q53.0625,266.7188 53.0625,268.8125 Q53.0625,270.9063 53.75,271.9844 Q54.4375,273.0469 55.7813,273.0469 Q56.4063,273.0469 57,272.7813 Q57.5938,272.5 58.2188,271.9219 L58.2188,274.6406 Z " fill="#000000"/><text fill="#000000" font-family="sans-serif" font-size="14" lengthAdjust="spacing" textLength="116" x="75.75" y="273.8467">VariantInputMixin</text><line style="stroke:#181818;stroke-width:0.5;" x1="8" x2="227" y1="285" y2="285"/><line style="stroke:#181818;stroke-width:0.5;" x1="8" x2="227" y1="293" y2="293"/><ellipse cx="18" cy="306.6484" fill="#84BE84" rx="3" ry="3" style="stroke:#038048;stroke-width:1.0;"/><text fill="#000000" font-family="sans-serif" font-size="14" lengthAdjust="spacing" textLength="194" x="27" y="309.9951">from_dict(kwargs) -&gt; Variant</text><ellipse cx="18" cy="322.9453" fill="#84BE84" rx="3" ry="3" style="stroke:#038048;stroke-width:1.0;"/><text fill="#000000" font-family="sans-serif" font-size="14" lengthAdjust="spacing" textLength="195" x="27" y="326.292">from_json(file: str) -&gt; Variant</text></g><!--MD5=[617b36b51e0749527da21c130557ec7d]
class VariantOutputMixin--><g id="elem_VariantOutputMixin"><rect codeLine="18" fill="#F1F1F1" height="96.8906" id="VariantOutputMixin" rx="3.5" ry="3.5" style="stroke:#181818;stroke-width:0.5;" width="161" x="263" y="245"/><ellipse cx="278" cy="261" fill="#ADD1B2" rx="11" ry="11" style="stroke:#181818;stroke-width:1.0;"/><path d="M280.9688,266.6406 Q280.3906,266.9375 279.75,267.0781 Q279.1094,267.2344 278.4063,267.2344 Q275.9063,267.2344 274.5781,265.5938 Q273.2656,263.9375 273.2656,260.8125 Q273.2656,257.6875 274.5781,256.0313 Q275.9063,254.375 278.4063,254.375 Q279.1094,254.375 279.75,254.5313 Q280.4063,254.6875 280.9688,254.9844 L280.9688,257.7031 Q280.3438,257.125 279.75,256.8594 Q279.1563,256.5781 278.5313,256.5781 Q277.1875,256.5781 276.5,257.6563 Q275.8125,258.7188 275.8125,260.8125 Q275.8125,262.9063 276.5,263.9844 Q277.1875,265.0469 278.5313,265.0469 Q279.1563,265.0469 279.75,264.7813 Q280.3438,264.5 280.9688,263.9219 L280.9688,266.6406 Z " fill="#000000"/><text fill="#000000" font-family="sans-serif" font-size="14" lengthAdjust="spacing" textLength="129" x="292" y="265.8467">VariantOutputMixin</text><line style="stroke:#181818;stroke-width:0.5;" x1="264" x2="423" y1="277" y2="277"/><line style="stroke:#181818;stroke-width:0.5;" x1="264" x2="423" y1="285" y2="285"/><ellipse cx="274" cy="298.6484" fill="#84BE84" rx="3" ry="3" style="stroke:#038048;stroke-width:1.0;"/><text fill="#000000" font-family="sans-serif" font-size="14" lengthAdjust="spacing" textLength="113" x="283" y="301.9951">to_string() -&gt; str</text><ellipse cx="274" cy="314.9453" fill="#84BE84" rx="3" ry="3" style="stroke:#038048;stroke-width:1.0;"/><text fill="#000000" font-family="sans-serif" font-size="14" lengthAdjust="spacing" textLength="106" x="283" y="318.292">to_dict() -&gt; dict</text><ellipse cx="274" cy="331.2422" fill="#84BE84" rx="3" ry="3" style="stroke:#038048;stroke-width:1.0;"/><text fill="#000000" font-family="sans-serif" font-size="14" lengthAdjust="spacing" textLength="122" x="283" y="334.5889">to_json() -&gt; None</text></g><!--MD5=[a8d5669a6a06e6fa946ec56bc93f8eb1]
link Variant to VariantInputMixin--><g id="link_Variant_VariantInputMixin"><path codeLine="23" d="M179.62,185.03 C169.77,202.07 159.68,219.52 150.59,235.26 " fill="none" id="Variant-to-VariantInputMixin" style="stroke:#454645;stroke-width:1.0;"/><polygon fill="none" points="156.5,239.02,140.43,252.83,144.38,232.01,156.5,239.02" style="stroke:#454645;stroke-width:1.0;"/></g><!--MD5=[2e8999512b59ccedc255de08e3f8e22b]
link Variant to VariantOutputMixin--><g id="link_Variant_VariantOutputMixin"><path codeLine="24" d="M281.38,185.03 C289.56,199.17 297.89,213.59 305.69,227.08 " fill="none" id="Variant-to-VariantOutputMixin" style="stroke:#454645;stroke-width:1.0;"/><polygon fill="none" points="311.98,223.98,315.93,244.8,299.86,230.98,311.98,223.98" style="stroke:#454645;stroke-width:1.0;"/></g><rect fill="#FFFFFF" height="11.6406" rx="3.5" ry="3.5" style="stroke:none;stroke-width:1.0;" width="112" x="152.5" y="347.8906"/><text fill="#888888" font-family="sans-serif" font-size="10" lengthAdjust="spacing" textLength="67" x="152.5" y="357.1729">Generated by</text><text fill="#888888" font-family="sans-serif" font-size="10" font-style="italic" lengthAdjust="spacing" textLength="42" x="222.5" y="357.1729">py2puml</text><!--MD5=[b9c86209e4560566a9d7a1a3164c8fe8]
@startuml
!theme vibrant
!pragma useIntermediatePackages false

class Variant {
  +number: str {static}
  +start_stop: str {static}
  +end_stop: str {static}
  +property name: str {static}
  +short_name: str {static}
  +distance: int {static}
  +running_time: int {static}
  +route_ids: tuple[int, int] {static}
}
class VariantInputMixin {
  +from_dict(kwargs) -> Variant
  +from_json(file: str) -> Variant
}
class VariantOutputMixin {
  +to_string() -> str
  +to_dict() -> dict
  +to_json() -> None
}
VariantInputMixin <|-u- Variant
VariantOutputMixin <|-u- Variant
footer Generated by //py2puml//
@enduml

@startuml
skinparam BackgroundColor FFFFFF
skinparam shadowing false
skinparam RoundCorner 7
skinparam ArrowColor 454645
skinparam FontColor 454645
skinparam SequenceLifeLineBorderColor 696969
skinparam SequenceGroupHeaderFontColor 454645
skinparam SequenceGroupFontColor 696969
skinparam SequenceGroupBorderColor 696969
skinparam SequenceGroupBorderThickness 1

skinparam sequenceDivider {
    BorderColor 454645
    BorderThickness 1
    FontColor 454645
}

skinparam participant {
    BackgroundColor FF6347
    BorderColor 454645
    FontColor FFFFFF
    BorderThickness 1.5
}

skinparam database {
    BackgroundColor 00FFFF
    BorderColor 454645
    FontColor 454645
}

skinparam entity {
    BackgroundColor FFE552
    BorderColor 454645
    FontColor 454645
}

skinparam note {
    BackgroundColor 7FFFD4
    BorderColor 454645
    FontColor 454645
    BorderThickness 1.5
}

skinparam actor {
    BackgroundColor 454645
    BorderColor 454645
    FontColor 454645
}

skinparam boundary {
    BackgroundColor FFE552
    BorderColor 454645
    FontColor 454645
}

skinparam control {
    BackgroundColor FFE552
    BorderColor 454645
    FontColor 454645
}

skinparam collections {
    BackgroundColor FF5F42
    BorderColor 454645
    FontColor 454645
}

skinparam queue {
    BackgroundColor FF6347
    BorderColor 454645
    FontColor FFF
    BorderThickness 1.5
}
!pragma useIntermediatePackages false

class Variant {
  +number: str {static}
  +start_stop: str {static}
  +end_stop: str {static}
  +property name: str {static}
  +short_name: str {static}
  +distance: int {static}
  +running_time: int {static}
  +route_ids: tuple[int, int] {static}
}
class VariantInputMixin {
  +from_dict(kwargs) -> Variant
  +from_json(file: str) -> Variant
}
class VariantOutputMixin {
  +to_string() -> str
  +to_dict() -> dict
  +to_json() -> None
}
VariantInputMixin <|-u- Variant
VariantOutputMixin <|-u- Variant
footer Generated by //py2puml//
@enduml

PlantUML version 1.2022.7(Mon Aug 22 17:01:30 UTC 2022)
(GPL source distribution)
Java Runtime: OpenJDK Runtime Environment
JVM: OpenJDK 64-Bit Server VM
Default Encoding: UTF-8
Language: en
Country: null
--></g></svg>